<svg width="1920" height="765" viewBox="0 0 1920 765" fill="none" xmlns="http://www.w3.org/2000/svg">
<path d="M764.528 382.264C764.528 593.383 593.383 764.528 382.264 764.528C171.145 764.528 0 593.383 0 382.264C0 171.145 171.145 0 382.264 0C593.383 0 764.528 171.145 764.528 382.264Z" fill="white"/>
<path d="M331.89 214.769C328.498 208.227 302.023 155.669 327.386 105.259C352.466 55.3724 409.113 45.9076 429.689 42.4618C474.723 34.938 510.74 48.7535 532.908 57.2588C570.157 71.5433 594.309 91.6396 612.41 106.764C638.655 128.702 661.417 154.497 679.918 183.267C659.592 198.852 635.996 209.623 610.905 214.769C585.717 219.785 564.999 217.648 551.587 216.154C528.405 213.57 523.236 209.426 497.96 203.756C478.9 199.493 441.258 191.358 397.882 196.592C375.114 199.394 352.881 205.518 331.89 214.769V214.769Z" fill="#78C2D8"/>
<path d="M69.9805 203.504C75.7093 201.883 81.537 200.633 87.4271 199.764C94.8285 198.688 102.302 198.185 109.781 198.259H109.89C131.295 198.467 151.893 204.268 151.893 204.268C155.436 205.26 152.231 204.497 180.527 214.648C183.275 215.641 188.683 217.582 195.793 220.438C202.019 222.925 206.326 224.8 207.362 225.269C220.949 231.059 246.192 232.477 269.974 229.511C281.303 228.102 292.484 225.687 303.384 222.292C298.085 213.067 275.251 171.043 288.38 118.779C305.347 51.3258 367.555 25.4284 374.065 22.8223C315.682 24.0802 258.478 39.5009 207.373 67.7583C127.62 112.018 86.3912 174.892 69.9805 203.504Z" fill="#3E9E37"/>
<path d="M70.2672 203.003C42.6571 249.658 26.7006 302.281 23.75 356.413C34.3598 352.052 54.2817 345.858 78.4017 349.871C85.6089 351.064 92.6554 353.08 99.4031 355.879C101.228 337.559 104.74 319.447 109.893 301.773C120.059 267.174 136.306 234.663 157.871 205.761C129.511 196.598 99.1371 195.642 70.2563 203.003H70.2672Z" fill="#2D973F"/>
<path d="M23.7478 355.899C19.1874 420.055 31.9584 484.256 60.7238 541.783C74.4798 524.701 94.1775 513.442 115.877 510.259C100.753 460.245 95.153 407.837 99.3682 355.757C87.3824 350.751 74.519 348.183 61.5295 348.203C48.5401 348.224 35.6849 350.833 23.7151 355.877L23.7478 355.899Z" fill="#1B8A42"/>
<path d="M157.76 205.725C148.486 229.649 141.003 254.229 135.374 279.262C129.704 304.636 128.373 319.978 127.872 327.241C127.027 339.726 127.027 352.255 127.872 364.74C167.868 375.481 200.821 375.993 225.377 373.736C266.889 369.93 285.055 358.121 328.89 352.735C360.844 348.897 393.195 349.912 424.847 355.744C405.841 338.603 390.128 323.697 378.395 312.269C344.81 279.633 334.255 266.646 328.89 259.766C319.549 247.798 311.007 235.227 303.32 222.135C293.504 224.9 283.5 226.948 273.388 228.264C255.374 230.608 235.627 233.17 213.415 226.759C209.62 225.668 208.77 225.178 203.012 222.855L202.249 222.539C193.417 218.951 181.858 214.764 181.858 214.764C176.69 212.889 169.013 210.054 157.76 205.725Z" fill="#2D973F"/>
<path d="M127.874 364.674C129.043 409.952 138.193 454.669 154.905 496.767C183.139 488.074 212.373 483.046 241.888 481.806C257.928 481.13 279.409 480.236 306.092 485.165C325.196 488.698 352.653 496.265 367.657 500.431C372.749 501.826 373.24 502.001 375.617 502.611C394.372 507.736 442.416 520.843 498.409 510.244C511.188 507.831 523.734 504.318 535.908 499.744C532.629 485.667 527.588 472.06 520.904 459.245C508.353 435.256 492.858 419.903 462.403 390.244C453.276 381.357 440.595 369.395 424.893 355.743C380.089 346.769 333.855 347.823 289.507 358.829C237.167 375.467 181.274 377.477 127.874 364.641V364.674Z" fill="#1B8A42"/>
<path d="M154.905 496.77C185.458 580.671 235.291 656.223 300.389 717.339C324.228 713.395 347.781 707.884 370.895 700.841C388.8 695.389 408.972 689.141 433.899 676.852C448.958 669.416 460.276 663.833 472.903 654.346C483.808 646.19 521.58 616.912 534.403 564.343C539.492 543.192 540.005 521.199 535.908 499.834C479.369 518.478 418.238 517.814 362.117 497.948C295.096 474.577 222.201 474.193 154.938 496.857L154.905 496.77Z" fill="#126937"/>
<path d="M567.411 495.286C573.113 524.52 570.464 546.994 567.411 561.289C542.462 678.084 388.833 723.598 373.894 727.796C359.621 731.814 345.082 734.824 330.387 736.802C362.968 741.273 452.721 749.201 547.903 699.303C665.264 637.782 708.739 531.379 718.924 504.282C706.287 509.751 692.587 512.32 678.827 511.801C665.068 511.282 651.599 507.688 639.411 501.283C616.465 492.545 591.518 490.466 567.443 495.286H567.411Z" fill="#244797"/>
<path d="M472.902 357.274C488.386 371.29 502.918 386.324 516.399 402.276C532.755 421.631 545.088 436.438 555.403 459.283C560.628 470.893 564.647 483.009 567.398 495.441C573.363 494.532 579.379 493.986 585.411 493.805C596.988 493.491 608.563 494.497 619.912 496.804C646.704 502.114 644.992 508.439 667.89 511.808C685.926 514.458 697.561 512.091 703.874 510.303C709.074 508.843 714.104 506.832 718.878 504.306C736.03 456.133 742.833 404.885 738.844 353.905C717.151 343.985 693.558 338.909 669.705 339.03C645.852 339.15 622.312 344.465 600.721 354.603C559.91 371.334 514.337 372.294 472.858 357.296L472.902 357.274Z" fill="#2176AB"/>
<path d="M330.387 211.767C337.698 226.791 346.773 240.891 357.418 253.77C376.086 276.342 392.017 285.785 420.422 309.272C433.017 319.686 451.51 335.715 472.926 357.251C492.009 364.985 512.385 369.033 532.975 369.18C548.132 369.09 563.218 367.097 577.879 363.248C589.219 360.446 594.671 358.058 603.776 354.983C612.009 352.213 642.41 342.127 672.647 341.145C688.229 340.644 710.942 342.464 738.89 354.132C734.622 292.974 714.271 234.028 679.898 183.264C662.328 194.657 643.097 203.257 622.891 208.758C605.641 213.446 579.176 220.632 550.924 214.766C540.914 212.683 519.487 207.983 516.412 207.264C506.358 204.887 498.082 202.76 492.423 201.266C477.669 197.374 440.464 190.21 396.466 195.258C373.818 197.876 351.605 203.426 330.387 211.767V211.767Z" fill="#34A1BD"/>
<path d="M60.5732 541.497C99.9894 620.692 167.363 682.463 249.673 714.873C188.514 659.085 142.485 588.712 115.879 510.322C94.0615 513.068 74.1977 524.28 60.5732 541.541V541.497Z" fill="#126937"/>
<path d="M892.278 367.5C882.273 367.5 872.834 365.806 863.959 362.417C855.084 358.867 847.258 353.704 840.481 346.926C833.865 340.149 828.62 331.758 824.748 321.754C820.875 311.588 818.939 299.889 818.939 286.657C818.939 273.587 820.956 261.969 824.99 251.803C829.024 241.476 834.429 232.762 841.207 225.662C847.984 218.562 855.891 213.157 864.927 209.445C873.963 205.734 883.484 203.878 893.488 203.878C903.654 203.878 912.771 205.976 920.839 210.172C928.907 214.206 935.604 218.966 940.929 224.452L922.049 247.204C918.015 243.493 913.739 240.508 909.221 238.249C904.864 235.828 899.862 234.618 894.214 234.618C888.889 234.618 883.806 235.828 878.966 238.249C874.286 240.508 870.171 243.816 866.621 248.172C863.233 252.529 860.49 257.854 858.392 264.147C856.455 270.44 855.487 277.54 855.487 285.447C855.487 301.745 858.957 314.412 865.895 323.448C872.834 332.323 882.112 336.761 893.73 336.761C900.185 336.761 905.913 335.389 910.915 332.646C916.079 329.741 920.597 326.191 924.47 321.996L943.349 344.264C930.117 359.755 913.094 367.5 892.278 367.5Z" fill="#020304"/>
<path d="M967.319 364.596V206.783H1066.07V236.796H1002.9V268.504H1056.63V298.276H1002.9V334.582H1068.49V364.596H967.319Z" fill="#020304"/>
<path d="M1099.92 364.596V206.783H1136.47L1177.62 285.205L1193.11 320.059H1194.08C1193.27 311.669 1192.3 302.31 1191.17 291.982C1190.21 281.655 1189.72 271.812 1189.72 262.453V206.783H1223.61V364.596H1187.06L1145.91 285.931L1130.42 251.561H1129.45C1130.26 260.275 1131.15 269.634 1132.12 279.638C1133.24 289.643 1133.81 299.324 1133.81 308.683V364.596H1099.92Z" fill="#020304"/>
<path d="M1309.06 367.5C1298.73 367.5 1288.4 365.644 1278.08 361.933C1267.91 358.06 1258.79 352.332 1250.73 344.748L1271.06 320.302C1276.71 325.142 1282.92 329.096 1289.7 332.162C1296.63 335.228 1303.41 336.761 1310.03 336.761C1317.45 336.761 1322.94 335.389 1326.49 332.646C1330.2 329.903 1332.05 326.191 1332.05 321.512C1332.05 319.091 1331.49 316.994 1330.36 315.219C1329.39 313.444 1327.86 311.911 1325.76 310.62C1323.82 309.168 1321.4 307.877 1318.5 306.747C1315.76 305.456 1312.69 304.085 1309.3 302.632L1288.73 293.919C1284.69 292.305 1280.74 290.207 1276.87 287.626C1273.16 285.044 1269.77 282.059 1266.7 278.67C1263.8 275.12 1261.46 271.086 1259.68 266.568C1257.91 261.888 1257.02 256.644 1257.02 250.835C1257.02 244.38 1258.39 238.329 1261.13 232.682C1263.88 226.873 1267.75 221.87 1272.75 217.675C1277.75 213.318 1283.64 209.93 1290.42 207.509C1297.36 205.089 1304.94 203.878 1313.17 203.878C1322.37 203.878 1331.41 205.653 1340.28 209.203C1349.32 212.753 1357.23 217.917 1364 224.694L1345.85 247.204C1340.69 243.17 1335.52 240.104 1330.36 238.007C1325.19 235.748 1319.47 234.618 1313.17 234.618C1307.04 234.618 1302.12 235.909 1298.41 238.491C1294.86 240.911 1293.08 244.38 1293.08 248.899C1293.08 251.319 1293.65 253.417 1294.78 255.192C1296.07 256.805 1297.76 258.338 1299.86 259.791C1302.12 261.081 1304.7 262.372 1307.61 263.663C1310.51 264.793 1313.66 266.084 1317.05 267.536L1337.38 275.765C1347.06 279.638 1354.64 284.963 1360.13 291.74C1365.78 298.518 1368.6 307.473 1368.6 318.607C1368.6 325.223 1367.23 331.516 1364.49 337.487C1361.9 343.296 1358.03 348.459 1352.87 352.977C1347.87 357.334 1341.65 360.884 1334.23 363.627C1326.81 366.209 1318.42 367.5 1309.06 367.5Z" fill="#020304"/>
<path d="M1395.39 364.596V206.783H1430.97V364.596H1395.39Z" fill="#020304"/>
<path d="M1468.19 364.596V206.783H1522.41C1531.12 206.783 1539.27 207.67 1546.85 209.445C1554.44 211.059 1561.05 213.883 1566.7 217.917C1572.35 221.79 1576.79 227.034 1580.01 233.65C1583.4 240.104 1585.1 248.092 1585.1 257.612C1585.1 266.81 1583.4 274.797 1580.01 281.575C1576.79 288.352 1572.35 293.919 1566.7 298.276C1561.05 302.632 1554.52 305.86 1547.1 307.957C1539.67 310.055 1531.77 311.104 1523.38 311.104H1503.77V364.596H1468.19ZM1503.77 282.785H1521.2C1540.56 282.785 1550.24 274.394 1550.24 257.612C1550.24 249.383 1547.66 243.574 1542.5 240.185C1537.33 236.796 1529.91 235.102 1520.23 235.102H1503.77V282.785Z" fill="#020304"/>
<path d="M1637.35 284.721L1633.48 299.244H1667.12L1663.49 284.721C1661.23 276.814 1659.06 268.423 1656.96 259.549C1654.86 250.674 1652.76 242.121 1650.67 233.892H1649.7C1647.76 242.283 1645.74 250.916 1643.65 259.791C1641.71 268.504 1639.61 276.814 1637.35 284.721ZM1580.23 364.596L1629.61 206.783H1672.45L1721.83 364.596H1684.07L1674.39 327.079H1626.22L1616.54 364.596H1580.23Z" fill="#020304"/>
<path d="M1739.07 364.596V206.783H1778.04L1803.45 276.976C1805.07 281.655 1806.6 286.496 1808.05 291.498C1809.51 296.339 1811.04 301.18 1812.65 306.021H1813.62C1815.23 301.18 1816.69 296.339 1817.98 291.498C1819.43 286.496 1820.96 281.655 1822.58 276.976L1847.51 206.783H1886.23V364.596H1853.8V306.747C1853.8 302.874 1853.96 298.598 1854.28 293.919C1854.61 289.239 1855.01 284.56 1855.49 279.88C1855.98 275.039 1856.46 270.36 1856.95 265.842C1857.43 261.162 1857.91 256.886 1858.4 253.013H1857.43L1844.6 290.53L1822.09 350.799H1802.49L1779.98 290.53L1767.39 253.013H1766.42C1766.91 256.886 1767.39 261.162 1767.87 265.842C1768.36 270.36 1768.84 275.039 1769.33 279.88C1769.81 284.56 1770.21 289.239 1770.54 293.919C1770.86 298.598 1771.02 302.874 1771.02 306.747V364.596H1739.07Z" fill="#020304"/>
<path d="M857.491 477.621C854.156 477.621 851.09 477.003 848.293 475.765C845.496 474.528 843.049 472.753 840.951 470.44C838.907 468.074 837.294 465.196 836.11 461.808C834.981 458.365 834.416 454.492 834.416 450.189C834.416 445.94 835.008 442.121 836.191 438.733C837.374 435.344 839.015 432.466 841.112 430.1C843.21 427.733 845.684 425.931 848.535 424.694C851.386 423.403 854.506 422.758 857.894 422.758C861.121 422.758 863.945 423.43 866.366 424.775C868.84 426.066 870.857 427.572 872.417 429.293L868.786 433.65C867.388 432.144 865.801 430.934 864.026 430.019C862.251 429.105 860.234 428.648 857.975 428.648C855.447 428.648 853.161 429.159 851.117 430.18C849.073 431.149 847.325 432.574 845.873 434.457C844.42 436.285 843.291 438.518 842.484 441.153C841.731 443.789 841.354 446.747 841.354 450.028C841.354 453.363 841.731 456.375 842.484 459.064C843.291 461.7 844.393 463.959 845.792 465.842C847.19 467.724 848.885 469.176 850.875 470.198C852.919 471.22 855.205 471.731 857.733 471.731C860.315 471.731 862.574 471.22 864.51 470.198C866.446 469.123 868.275 467.643 869.996 465.761L873.708 469.956C871.61 472.377 869.243 474.259 866.608 475.604C863.972 476.949 860.933 477.621 857.491 477.621Z" fill="#020304"/>
<path d="M898.823 477.621C896.187 477.621 893.713 477.164 891.4 476.25C889.141 475.281 887.151 473.937 885.43 472.215C883.762 470.44 882.445 468.289 881.476 465.761C880.508 463.233 880.024 460.355 880.024 457.128C880.024 453.901 880.508 451.023 881.476 448.495C882.498 445.913 883.816 443.735 885.43 441.96C887.097 440.185 888.98 438.84 891.077 437.926C893.175 436.958 895.354 436.474 897.613 436.474C900.087 436.474 902.292 436.904 904.229 437.765C906.219 438.625 907.859 439.862 909.15 441.476C910.495 443.089 911.517 445.026 912.216 447.285C912.915 449.544 913.265 452.072 913.265 454.869C913.265 455.568 913.238 456.267 913.184 456.967C913.184 457.612 913.13 458.177 913.023 458.661H886.559C886.828 462.856 888.119 466.191 890.432 468.665C892.799 471.086 895.865 472.296 899.63 472.296C901.512 472.296 903.233 472.027 904.793 471.489C906.407 470.898 907.94 470.145 909.392 469.23L911.732 473.587C910.011 474.663 908.101 475.604 906.004 476.411C903.906 477.218 901.512 477.621 898.823 477.621ZM886.479 453.901H907.456C907.456 449.921 906.595 446.908 904.874 444.864C903.207 442.767 900.84 441.718 897.774 441.718C896.376 441.718 895.031 441.987 893.74 442.525C892.503 443.063 891.373 443.869 890.351 444.945C889.329 445.967 888.469 447.231 887.77 448.737C887.124 450.243 886.694 451.964 886.479 453.901Z" fill="#020304"/>
<path d="M922.954 476.653V437.442H928.441L929.005 443.09H929.247C931.13 441.207 933.093 439.647 935.137 438.41C937.235 437.119 939.655 436.474 942.398 436.474C946.54 436.474 949.552 437.765 951.435 440.346C953.371 442.928 954.339 446.747 954.339 451.803V476.653H947.723V452.691C947.723 448.979 947.132 446.317 945.948 444.703C944.765 443.036 942.882 442.202 940.301 442.202C938.257 442.202 936.455 442.713 934.895 443.735C933.335 444.757 931.56 446.263 929.57 448.253V476.653H922.954Z" fill="#020304"/>
<path d="M979.421 477.621C977.323 477.621 975.548 477.298 974.096 476.653C972.698 476.007 971.541 475.12 970.627 473.99C969.766 472.861 969.148 471.489 968.771 469.876C968.395 468.262 968.206 466.487 968.206 464.551V442.847H962.397V437.845L968.529 437.442L969.336 426.469H974.903V437.442H985.472V442.847H974.903V464.631C974.903 467.052 975.333 468.934 976.194 470.279C977.108 471.57 978.695 472.215 980.954 472.215C981.653 472.215 982.406 472.108 983.213 471.893C984.02 471.678 984.746 471.436 985.391 471.167L986.682 476.169C985.607 476.545 984.423 476.868 983.132 477.137C981.895 477.46 980.658 477.621 979.421 477.621Z" fill="#020304"/>
<path d="M994.338 476.653V437.442H999.825L1000.39 444.542H1000.63C1001.98 442.068 1003.59 440.104 1005.47 438.652C1007.41 437.2 1009.51 436.474 1011.77 436.474C1013.33 436.474 1014.72 436.743 1015.96 437.28L1014.67 443.09C1014.02 442.874 1013.43 442.713 1012.89 442.605C1012.36 442.498 1011.68 442.444 1010.88 442.444C1009.21 442.444 1007.46 443.116 1005.63 444.461C1003.86 445.806 1002.3 448.146 1000.95 451.48V476.653H994.338Z" fill="#020304"/>
<path d="M1036.77 477.621C1034.35 477.621 1032.04 477.164 1029.83 476.25C1027.68 475.335 1025.77 474.017 1024.1 472.296C1022.44 470.521 1021.09 468.37 1020.07 465.842C1019.1 463.26 1018.62 460.355 1018.62 457.128C1018.62 453.847 1019.1 450.942 1020.07 448.414C1021.09 445.833 1022.44 443.654 1024.1 441.879C1025.77 440.104 1027.68 438.76 1029.83 437.845C1032.04 436.931 1034.35 436.474 1036.77 436.474C1039.19 436.474 1041.48 436.931 1043.63 437.845C1045.83 438.76 1047.77 440.104 1049.44 441.879C1051.1 443.654 1052.42 445.833 1053.39 448.414C1054.41 450.942 1054.92 453.847 1054.92 457.128C1054.92 460.355 1054.41 463.26 1053.39 465.842C1052.42 468.37 1051.1 470.521 1049.44 472.296C1047.77 474.017 1045.83 475.335 1043.63 476.25C1041.48 477.164 1039.19 477.621 1036.77 477.621ZM1036.77 472.135C1038.44 472.135 1039.97 471.785 1041.37 471.086C1042.77 470.333 1043.95 469.311 1044.92 468.02C1045.94 466.675 1046.72 465.089 1047.26 463.26C1047.8 461.431 1048.07 459.387 1048.07 457.128C1048.07 454.869 1047.8 452.825 1047.26 450.996C1046.72 449.114 1045.94 447.5 1044.92 446.155C1043.95 444.811 1042.77 443.789 1041.37 443.09C1039.97 442.336 1038.44 441.96 1036.77 441.96C1035.1 441.96 1033.57 442.336 1032.17 443.09C1030.77 443.789 1029.56 444.811 1028.54 446.155C1027.57 447.5 1026.82 449.114 1026.28 450.996C1025.74 452.825 1025.47 454.869 1025.47 457.128C1025.47 459.387 1025.74 461.431 1026.28 463.26C1026.82 465.089 1027.57 466.675 1028.54 468.02C1029.56 469.311 1030.77 470.333 1032.17 471.086C1033.57 471.785 1035.1 472.135 1036.77 472.135Z" fill="#020304"/>
<path d="M1102.86 477.621C1099.37 477.621 1096.14 477.003 1093.18 475.765C1090.28 474.528 1087.78 472.753 1085.68 470.44C1083.58 468.074 1081.94 465.196 1080.76 461.808C1079.57 458.365 1078.98 454.492 1078.98 450.189C1078.98 445.94 1079.57 442.121 1080.76 438.733C1081.99 435.344 1083.69 432.466 1085.84 430.1C1087.99 427.733 1090.55 425.931 1093.5 424.694C1096.52 423.403 1099.77 422.758 1103.27 422.758C1105.09 422.758 1106.76 422.946 1108.27 423.323C1109.83 423.699 1111.23 424.21 1112.46 424.856C1113.75 425.447 1114.88 426.146 1115.85 426.953C1116.87 427.706 1117.76 428.486 1118.51 429.293L1114.8 433.65C1113.46 432.251 1111.9 431.068 1110.12 430.1C1108.35 429.132 1106.12 428.648 1103.43 428.648C1100.74 428.648 1098.32 429.159 1096.17 430.18C1094.01 431.149 1092.19 432.574 1090.68 434.457C1089.17 436.285 1087.99 438.518 1087.13 441.153C1086.32 443.789 1085.92 446.747 1085.92 450.028C1085.92 453.363 1086.3 456.375 1087.05 459.064C1087.86 461.7 1088.99 463.959 1090.44 465.842C1091.94 467.724 1093.77 469.176 1095.92 470.198C1098.13 471.22 1100.66 471.731 1103.51 471.731C1105.39 471.731 1107.17 471.462 1108.83 470.925C1110.55 470.333 1111.95 469.553 1113.03 468.585V454.788H1101.81V449.221H1119.16V471.489C1117.44 473.264 1115.18 474.743 1112.38 475.927C1109.59 477.056 1106.41 477.621 1102.86 477.621Z" fill="#020304"/>
<path d="M1147.09 477.621C1144.46 477.621 1141.98 477.164 1139.67 476.25C1137.41 475.281 1135.42 473.937 1133.7 472.215C1132.03 470.44 1130.71 468.289 1129.74 465.761C1128.78 463.233 1128.29 460.355 1128.29 457.128C1128.29 453.901 1128.78 451.023 1129.74 448.495C1130.77 445.913 1132.08 443.735 1133.7 441.96C1135.37 440.185 1137.25 438.84 1139.35 437.926C1141.44 436.958 1143.62 436.474 1145.88 436.474C1148.36 436.474 1150.56 436.904 1152.5 437.765C1154.49 438.625 1156.13 439.862 1157.42 441.476C1158.76 443.089 1159.79 445.026 1160.48 447.285C1161.18 449.544 1161.53 452.072 1161.53 454.869C1161.53 455.568 1161.51 456.267 1161.45 456.967C1161.45 457.612 1161.4 458.177 1161.29 458.661H1134.83C1135.1 462.856 1136.39 466.191 1138.7 468.665C1141.07 471.086 1144.13 472.296 1147.9 472.296C1149.78 472.296 1151.5 472.027 1153.06 471.489C1154.68 470.898 1156.21 470.145 1157.66 469.23L1160 473.587C1158.28 474.663 1156.37 475.604 1154.27 476.411C1152.17 477.218 1149.78 477.621 1147.09 477.621ZM1134.75 453.901H1155.72C1155.72 449.921 1154.86 446.908 1153.14 444.864C1151.47 442.767 1149.11 441.718 1146.04 441.718C1144.64 441.718 1143.3 441.987 1142.01 442.525C1140.77 443.063 1139.64 443.869 1138.62 444.945C1137.6 445.967 1136.74 447.231 1136.04 448.737C1135.39 450.243 1134.96 451.964 1134.75 453.901Z" fill="#020304"/>
<path d="M1181.47 477.621C1178.67 477.621 1176.01 477.11 1173.48 476.088C1170.95 475.066 1168.75 473.775 1166.87 472.215L1170.17 467.778C1171.89 469.176 1173.64 470.306 1175.42 471.167C1177.25 472.027 1179.34 472.457 1181.71 472.457C1184.29 472.457 1186.23 471.866 1187.52 470.682C1188.81 469.499 1189.46 468.047 1189.46 466.326C1189.46 465.304 1189.19 464.416 1188.65 463.663C1188.11 462.91 1187.41 462.265 1186.55 461.727C1185.75 461.135 1184.8 460.624 1183.73 460.194C1182.65 459.764 1181.58 459.333 1180.5 458.903C1179.1 458.419 1177.7 457.881 1176.31 457.289C1174.91 456.644 1173.64 455.891 1172.51 455.03C1171.44 454.116 1170.55 453.067 1169.85 451.884C1169.15 450.7 1168.8 449.275 1168.8 447.608C1168.8 446.048 1169.1 444.596 1169.69 443.251C1170.34 441.852 1171.22 440.669 1172.35 439.701C1173.54 438.679 1174.96 437.899 1176.63 437.361C1178.3 436.769 1180.18 436.474 1182.28 436.474C1184.75 436.474 1187.01 436.904 1189.05 437.765C1191.15 438.625 1192.95 439.674 1194.46 440.911L1191.31 445.107C1189.97 444.085 1188.57 443.251 1187.12 442.605C1185.66 441.96 1184.08 441.637 1182.36 441.637C1179.88 441.637 1178.05 442.202 1176.87 443.332C1175.74 444.461 1175.18 445.779 1175.18 447.285C1175.18 448.199 1175.42 449.006 1175.9 449.705C1176.39 450.351 1177.03 450.942 1177.84 451.48C1178.65 451.964 1179.56 452.422 1180.58 452.852C1181.66 453.228 1182.76 453.632 1183.89 454.062C1185.29 454.6 1186.69 455.165 1188.08 455.756C1189.54 456.348 1190.83 457.101 1191.96 458.016C1193.09 458.876 1194 459.952 1194.7 461.243C1195.45 462.534 1195.83 464.094 1195.83 465.922C1195.83 467.536 1195.51 469.042 1194.86 470.44C1194.27 471.839 1193.36 473.076 1192.12 474.152C1190.94 475.228 1189.43 476.061 1187.6 476.653C1185.83 477.298 1183.78 477.621 1181.47 477.621Z" fill="#020304"/>
<path d="M1215.79 477.621C1213.69 477.621 1211.92 477.298 1210.47 476.653C1209.07 476.007 1207.91 475.12 1207 473.99C1206.14 472.861 1205.52 471.489 1205.14 469.876C1204.77 468.262 1204.58 466.487 1204.58 464.551V442.847H1198.77V437.845L1204.9 437.442L1205.71 426.469H1211.27V437.442H1221.84V442.847H1211.27V464.631C1211.27 467.052 1211.7 468.934 1212.56 470.279C1213.48 471.57 1215.07 472.215 1217.32 472.215C1218.02 472.215 1218.78 472.108 1219.58 471.893C1220.39 471.678 1221.12 471.436 1221.76 471.167L1223.05 476.169C1221.98 476.545 1220.79 476.868 1219.5 477.137C1218.27 477.46 1217.03 477.621 1215.79 477.621Z" fill="#020304"/>
<path d="M1244.85 477.621C1242.43 477.621 1240.12 477.164 1237.92 476.25C1235.76 475.335 1233.86 474.017 1232.19 472.296C1230.52 470.521 1229.18 468.37 1228.15 465.842C1227.19 463.26 1226.7 460.355 1226.7 457.128C1226.7 453.847 1227.19 450.942 1228.15 448.414C1229.18 445.833 1230.52 443.654 1232.19 441.879C1233.86 440.104 1235.76 438.76 1237.92 437.845C1240.12 436.931 1242.43 436.474 1244.85 436.474C1247.28 436.474 1249.56 436.931 1251.71 437.845C1253.92 438.76 1255.85 440.104 1257.52 441.879C1259.19 443.654 1260.51 445.833 1261.48 448.414C1262.5 450.942 1263.01 453.847 1263.01 457.128C1263.01 460.355 1262.5 463.26 1261.48 465.842C1260.51 468.37 1259.19 470.521 1257.52 472.296C1255.85 474.017 1253.92 475.335 1251.71 476.25C1249.56 477.164 1247.28 477.621 1244.85 477.621ZM1244.85 472.135C1246.52 472.135 1248.06 471.785 1249.45 471.086C1250.85 470.333 1252.04 469.311 1253 468.02C1254.03 466.675 1254.81 465.089 1255.34 463.26C1255.88 461.431 1256.15 459.387 1256.15 457.128C1256.15 454.869 1255.88 452.825 1255.34 450.996C1254.81 449.114 1254.03 447.5 1253 446.155C1252.04 444.811 1250.85 443.789 1249.45 443.09C1248.06 442.336 1246.52 441.96 1244.85 441.96C1243.19 441.96 1241.65 442.336 1240.26 443.09C1238.86 443.789 1237.65 444.811 1236.63 446.155C1235.66 447.5 1234.9 449.114 1234.37 450.996C1233.83 452.825 1233.56 454.869 1233.56 457.128C1233.56 459.387 1233.83 461.431 1234.37 463.26C1234.9 465.089 1235.66 466.675 1236.63 468.02C1237.65 469.311 1238.86 470.333 1240.26 471.086C1241.65 471.785 1243.19 472.135 1244.85 472.135Z" fill="#020304"/>
<path d="M1273.33 476.653V437.442H1278.82L1279.39 444.542H1279.63C1280.97 442.068 1282.59 440.104 1284.47 438.652C1286.41 437.2 1288.5 436.474 1290.76 436.474C1292.32 436.474 1293.72 436.743 1294.96 437.28L1293.67 443.09C1293.02 442.874 1292.43 442.713 1291.89 442.605C1291.35 442.498 1290.68 442.444 1289.87 442.444C1288.21 442.444 1286.46 443.116 1284.63 444.461C1282.86 445.806 1281.3 448.146 1279.95 451.48V476.653H1273.33Z" fill="#020304"/>
<path d="M1333.35 477.621C1330.72 477.621 1328.24 477.164 1325.93 476.25C1323.67 475.281 1321.68 473.937 1319.96 472.215C1318.29 470.44 1316.97 468.289 1316.01 465.761C1315.04 463.233 1314.55 460.355 1314.55 457.128C1314.55 453.901 1315.04 451.023 1316.01 448.495C1317.03 445.913 1318.34 443.735 1319.96 441.96C1321.63 440.185 1323.51 438.84 1325.61 437.926C1327.7 436.958 1329.88 436.474 1332.14 436.474C1334.62 436.474 1336.82 436.904 1338.76 437.765C1340.75 438.625 1342.39 439.862 1343.68 441.476C1345.02 443.089 1346.05 445.026 1346.74 447.285C1347.44 449.544 1347.79 452.072 1347.79 454.869C1347.79 455.568 1347.77 456.267 1347.71 456.967C1347.71 457.612 1347.66 458.177 1347.55 458.661H1321.09C1321.36 462.856 1322.65 466.191 1324.96 468.665C1327.33 471.086 1330.39 472.296 1334.16 472.296C1336.04 472.296 1337.76 472.027 1339.32 471.489C1340.94 470.898 1342.47 470.145 1343.92 469.23L1346.26 473.587C1344.54 474.663 1342.63 475.604 1340.53 476.411C1338.43 477.218 1336.04 477.621 1333.35 477.621ZM1321.01 453.901H1341.98C1341.98 449.921 1341.12 446.908 1339.4 444.864C1337.74 442.767 1335.37 441.718 1332.3 441.718C1330.9 441.718 1329.56 441.987 1328.27 442.525C1327.03 443.063 1325.9 443.869 1324.88 444.945C1323.86 445.967 1323 447.231 1322.3 448.737C1321.65 450.243 1321.22 451.964 1321.01 453.901Z" fill="#020304"/>
<path d="M1393.81 477.621C1390.47 477.621 1387.4 476.976 1384.61 475.685C1381.86 474.394 1379.5 472.565 1377.51 470.198C1375.52 467.778 1373.96 464.873 1372.83 461.485C1371.75 458.042 1371.21 454.197 1371.21 449.947C1371.21 445.698 1371.75 441.906 1372.83 438.571C1373.96 435.183 1375.52 432.332 1377.51 430.019C1379.5 427.652 1381.86 425.851 1384.61 424.613C1387.4 423.376 1390.47 422.758 1393.81 422.758C1397.14 422.758 1400.18 423.403 1402.92 424.694C1405.72 425.931 1408.11 427.733 1410.1 430.1C1412.15 432.413 1413.71 435.263 1414.78 438.652C1415.91 441.987 1416.48 445.752 1416.48 449.947C1416.48 454.197 1415.91 458.042 1414.78 461.485C1413.71 464.873 1412.15 467.778 1410.1 470.198C1408.11 472.565 1405.72 474.394 1402.92 475.685C1400.18 476.976 1397.14 477.621 1393.81 477.621ZM1393.81 471.731C1396.17 471.731 1398.3 471.22 1400.18 470.198C1402.12 469.176 1403.76 467.724 1405.1 465.842C1406.5 463.905 1407.57 461.619 1408.33 458.984C1409.08 456.294 1409.46 453.282 1409.46 449.947C1409.46 446.666 1409.08 443.708 1408.33 441.072C1407.57 438.437 1406.5 436.205 1405.1 434.376C1403.76 432.547 1402.12 431.149 1400.18 430.18C1398.3 429.159 1396.17 428.648 1393.81 428.648C1391.44 428.648 1389.29 429.159 1387.35 430.18C1385.47 431.149 1383.83 432.547 1382.43 434.376C1381.08 436.205 1380.04 438.437 1379.28 441.072C1378.53 443.708 1378.15 446.666 1378.15 449.947C1378.15 453.282 1378.53 456.294 1379.28 458.984C1380.04 461.619 1381.08 463.905 1382.43 465.842C1383.83 467.724 1385.47 469.176 1387.35 470.198C1389.29 471.22 1391.44 471.731 1393.81 471.731Z" fill="#020304"/>
<path d="M1427.21 493.193V437.442H1432.7L1433.26 441.96H1433.51C1435.28 440.454 1437.22 439.163 1439.31 438.087C1441.47 437.011 1443.7 436.474 1446.01 436.474C1448.54 436.474 1450.77 436.958 1452.71 437.926C1454.64 438.84 1456.26 440.185 1457.55 441.96C1458.84 443.681 1459.81 445.779 1460.45 448.253C1461.15 450.674 1461.5 453.417 1461.5 456.483C1461.5 459.817 1461.04 462.803 1460.13 465.438C1459.22 468.02 1457.98 470.225 1456.42 472.054C1454.86 473.883 1453.06 475.281 1451.01 476.25C1448.97 477.164 1446.82 477.621 1444.56 477.621C1442.73 477.621 1440.9 477.218 1439.07 476.411C1437.3 475.604 1435.5 474.501 1433.67 473.103L1433.83 479.961V493.193H1427.21ZM1443.43 472.054C1445.04 472.054 1446.52 471.704 1447.87 471.005C1449.27 470.252 1450.45 469.23 1451.42 467.939C1452.44 466.595 1453.22 464.954 1453.76 463.018C1454.35 461.081 1454.64 458.903 1454.64 456.483C1454.64 454.331 1454.46 452.368 1454.08 450.593C1453.7 448.818 1453.08 447.312 1452.22 446.075C1451.42 444.784 1450.34 443.789 1449 443.09C1447.71 442.39 1446.15 442.041 1444.32 442.041C1442.65 442.041 1440.95 442.498 1439.23 443.412C1437.57 444.327 1435.76 445.644 1433.83 447.366V467.939C1435.6 469.445 1437.32 470.521 1438.99 471.167C1440.66 471.758 1442.14 472.054 1443.43 472.054Z" fill="#020304"/>
<path d="M1487.86 477.621C1485.22 477.621 1482.75 477.164 1480.44 476.25C1478.18 475.281 1476.19 473.937 1474.47 472.215C1472.8 470.44 1471.48 468.289 1470.51 465.761C1469.54 463.233 1469.06 460.355 1469.06 457.128C1469.06 453.901 1469.54 451.023 1470.51 448.495C1471.53 445.913 1472.85 443.735 1474.47 441.96C1476.13 440.185 1478.02 438.84 1480.11 437.926C1482.21 436.958 1484.39 436.474 1486.65 436.474C1489.12 436.474 1491.33 436.904 1493.27 437.765C1495.26 438.625 1496.9 439.862 1498.19 441.476C1499.53 443.089 1500.55 445.026 1501.25 447.285C1501.95 449.544 1502.3 452.072 1502.3 454.869C1502.3 455.568 1502.27 456.267 1502.22 456.967C1502.22 457.612 1502.17 458.177 1502.06 458.661H1475.6C1475.86 462.856 1477.16 466.191 1479.47 468.665C1481.84 471.086 1484.9 472.296 1488.67 472.296C1490.55 472.296 1492.27 472.027 1493.83 471.489C1495.44 470.898 1496.98 470.145 1498.43 469.23L1500.77 473.587C1499.05 474.663 1497.14 475.604 1495.04 476.411C1492.94 477.218 1490.55 477.621 1487.86 477.621ZM1475.52 453.901H1496.49C1496.49 449.921 1495.63 446.908 1493.91 444.864C1492.24 442.767 1489.88 441.718 1486.81 441.718C1485.41 441.718 1484.07 441.987 1482.78 442.525C1481.54 443.063 1480.41 443.869 1479.39 444.945C1478.37 445.967 1477.51 447.231 1476.81 448.737C1476.16 450.243 1475.73 451.964 1475.52 453.901Z" fill="#020304"/>
<path d="M1511.99 476.653V437.442H1517.48L1518.04 444.542H1518.28C1519.63 442.068 1521.24 440.104 1523.12 438.652C1525.06 437.2 1527.16 436.474 1529.42 436.474C1530.98 436.474 1532.38 436.743 1533.61 437.28L1532.32 443.09C1531.68 442.874 1531.09 442.713 1530.55 442.605C1530.01 442.498 1529.34 442.444 1528.53 442.444C1526.86 442.444 1525.11 443.116 1523.29 444.461C1521.51 445.806 1519.95 448.146 1518.61 451.48V476.653H1511.99Z" fill="#020304"/>
<path d="M1547.03 477.621C1543.75 477.621 1541 476.653 1538.8 474.717C1536.65 472.78 1535.57 470.037 1535.57 466.487C1535.57 462.184 1537.48 458.903 1541.3 456.644C1545.12 454.331 1551.22 452.717 1559.61 451.803C1559.61 450.566 1559.48 449.356 1559.21 448.172C1559 446.989 1558.59 445.94 1558 445.026C1557.41 444.111 1556.58 443.385 1555.5 442.847C1554.48 442.256 1553.16 441.96 1551.55 441.96C1549.29 441.96 1547.16 442.39 1545.17 443.251C1543.18 444.111 1541.41 445.08 1539.85 446.155L1537.27 441.557C1539.09 440.373 1541.33 439.244 1543.96 438.168C1546.6 437.038 1549.5 436.474 1552.68 436.474C1557.46 436.474 1560.93 437.953 1563.08 440.911C1565.23 443.816 1566.31 447.715 1566.31 452.61V476.653H1560.82L1560.26 471.973H1560.02C1558.13 473.533 1556.12 474.878 1553.97 476.007C1551.81 477.083 1549.5 477.621 1547.03 477.621ZM1548.96 472.296C1550.85 472.296 1552.62 471.866 1554.29 471.005C1555.96 470.091 1557.73 468.773 1559.61 467.052V456.16C1556.33 456.59 1553.56 457.101 1551.3 457.693C1549.1 458.284 1547.3 458.984 1545.9 459.791C1544.55 460.597 1543.56 461.539 1542.91 462.614C1542.32 463.636 1542.03 464.766 1542.03 466.003C1542.03 468.262 1542.7 469.876 1544.04 470.844C1545.39 471.812 1547.03 472.296 1548.96 472.296Z" fill="#020304"/>
<path d="M1594.14 477.621C1591.56 477.621 1589.14 477.164 1586.88 476.25C1584.62 475.335 1582.65 474.017 1580.99 472.296C1579.37 470.521 1578.08 468.37 1577.11 465.842C1576.2 463.26 1575.74 460.355 1575.74 457.128C1575.74 453.847 1576.25 450.942 1577.28 448.414C1578.3 445.833 1579.67 443.654 1581.39 441.879C1583.11 440.104 1585.1 438.76 1587.36 437.845C1589.67 436.931 1592.09 436.474 1594.62 436.474C1597.2 436.474 1599.41 436.931 1601.24 437.845C1603.07 438.76 1604.68 439.835 1606.08 441.072L1602.69 445.429C1601.56 444.407 1600.35 443.574 1599.06 442.928C1597.82 442.283 1596.42 441.96 1594.86 441.96C1593.09 441.96 1591.45 442.336 1589.94 443.09C1588.44 443.789 1587.15 444.811 1586.07 446.155C1584.99 447.5 1584.13 449.114 1583.49 450.996C1582.9 452.825 1582.6 454.869 1582.6 457.128C1582.6 459.387 1582.9 461.431 1583.49 463.26C1584.08 465.089 1584.89 466.675 1585.91 468.02C1586.98 469.311 1588.28 470.333 1589.78 471.086C1591.29 471.785 1592.93 472.135 1594.7 472.135C1596.53 472.135 1598.2 471.758 1599.71 471.005C1601.26 470.198 1602.66 469.257 1603.9 468.181L1606.81 472.619C1605.03 474.179 1603.07 475.416 1600.92 476.33C1598.76 477.191 1596.5 477.621 1594.14 477.621Z" fill="#020304"/>
<path d="M1615.44 476.653V437.442H1622.06V476.653H1615.44ZM1618.83 429.374C1617.54 429.374 1616.44 428.97 1615.52 428.163C1614.66 427.357 1614.23 426.335 1614.23 425.098C1614.23 423.807 1614.66 422.785 1615.52 422.032C1616.44 421.225 1617.54 420.821 1618.83 420.821C1620.12 420.821 1621.2 421.225 1622.06 422.032C1622.97 422.785 1623.43 423.807 1623.43 425.098C1623.43 426.335 1622.97 427.357 1622.06 428.163C1621.2 428.97 1620.12 429.374 1618.83 429.374Z" fill="#020304"/>
<path d="M1650.55 477.621C1648.13 477.621 1645.81 477.164 1643.61 476.25C1641.46 475.335 1639.55 474.017 1637.88 472.296C1636.21 470.521 1634.87 468.37 1633.85 465.842C1632.88 463.26 1632.39 460.355 1632.39 457.128C1632.39 453.847 1632.88 450.942 1633.85 448.414C1634.87 445.833 1636.21 443.654 1637.88 441.879C1639.55 440.104 1641.46 438.76 1643.61 437.845C1645.81 436.931 1648.13 436.474 1650.55 436.474C1652.97 436.474 1655.25 436.931 1657.4 437.845C1659.61 438.76 1661.55 440.104 1663.21 441.879C1664.88 443.654 1666.2 445.833 1667.17 448.414C1668.19 450.942 1668.7 453.847 1668.7 457.128C1668.7 460.355 1668.19 463.26 1667.17 465.842C1666.2 468.37 1664.88 470.521 1663.21 472.296C1661.55 474.017 1659.61 475.335 1657.4 476.25C1655.25 477.164 1652.97 477.621 1650.55 477.621ZM1650.55 472.135C1652.21 472.135 1653.75 471.785 1655.15 471.086C1656.54 470.333 1657.73 469.311 1658.7 468.02C1659.72 466.675 1660.5 465.089 1661.03 463.26C1661.57 461.431 1661.84 459.387 1661.84 457.128C1661.84 454.869 1661.57 452.825 1661.03 450.996C1660.5 449.114 1659.72 447.5 1658.7 446.155C1657.73 444.811 1656.54 443.789 1655.15 443.09C1653.75 442.336 1652.21 441.96 1650.55 441.96C1648.88 441.96 1647.35 442.336 1645.95 443.09C1644.55 443.789 1643.34 444.811 1642.32 446.155C1641.35 447.5 1640.6 449.114 1640.06 450.996C1639.52 452.825 1639.25 454.869 1639.25 457.128C1639.25 459.387 1639.52 461.431 1640.06 463.26C1640.6 465.089 1641.35 466.675 1642.32 468.02C1643.34 469.311 1644.55 470.333 1645.95 471.086C1647.35 471.785 1648.88 472.135 1650.55 472.135Z" fill="#020304"/>
<path d="M1679.03 476.653V437.442H1684.51L1685.08 443.09H1685.32C1687.2 441.207 1689.17 439.647 1691.21 438.41C1693.31 437.119 1695.73 436.474 1698.47 436.474C1702.61 436.474 1705.62 437.765 1707.51 440.346C1709.44 442.928 1710.41 446.747 1710.41 451.803V476.653H1703.8V452.691C1703.8 448.979 1703.2 446.317 1702.02 444.703C1700.84 443.036 1698.95 442.202 1696.37 442.202C1694.33 442.202 1692.53 442.713 1690.97 443.735C1689.41 444.757 1687.63 446.263 1685.64 448.253V476.653H1679.03Z" fill="#020304"/>
<path d="M1732.19 477.621C1728.9 477.621 1726.16 476.653 1723.96 474.717C1721.8 472.78 1720.73 470.037 1720.73 466.487C1720.73 462.184 1722.64 458.903 1726.46 456.644C1730.28 454.331 1736.38 452.717 1744.77 451.803C1744.77 450.566 1744.64 449.356 1744.37 448.172C1744.15 446.989 1743.75 445.94 1743.16 445.026C1742.57 444.111 1741.73 443.385 1740.66 442.847C1739.63 442.256 1738.32 441.96 1736.7 441.96C1734.44 441.96 1732.32 442.39 1730.33 443.251C1728.34 444.111 1726.56 445.08 1725 446.155L1722.42 441.557C1724.25 440.373 1726.48 439.244 1729.12 438.168C1731.75 437.038 1734.66 436.474 1737.83 436.474C1742.62 436.474 1746.09 437.953 1748.24 440.911C1750.39 443.816 1751.47 447.715 1751.47 452.61V476.653H1745.98L1745.42 471.973H1745.17C1743.29 473.533 1741.28 474.878 1739.12 476.007C1736.97 477.083 1734.66 477.621 1732.19 477.621ZM1734.12 472.296C1736 472.296 1737.78 471.866 1739.45 471.005C1741.11 470.091 1742.89 468.773 1744.77 467.052V456.16C1741.49 456.59 1738.72 457.101 1736.46 457.693C1734.26 458.284 1732.45 458.984 1731.06 459.791C1729.71 460.597 1728.72 461.539 1728.07 462.614C1727.48 463.636 1727.18 464.766 1727.18 466.003C1727.18 468.262 1727.86 469.876 1729.2 470.844C1730.54 471.812 1732.19 472.296 1734.12 472.296Z" fill="#020304"/>
<path d="M1770.82 477.621C1768.3 477.621 1766.49 476.868 1765.42 475.362C1764.34 473.856 1763.8 471.651 1763.8 468.746V419.208H1770.42V469.23C1770.42 470.306 1770.61 471.059 1770.99 471.489C1771.36 471.92 1771.79 472.135 1772.28 472.135C1772.49 472.135 1772.68 472.135 1772.84 472.135C1773.06 472.135 1773.35 472.081 1773.73 471.973L1774.62 476.976C1774.19 477.191 1773.67 477.352 1773.08 477.46C1772.49 477.567 1771.74 477.621 1770.82 477.621Z" fill="#020304"/>
<path d="M1813.91 477.621C1808.97 477.621 1805.01 475.846 1802.05 472.296C1799.15 468.746 1797.7 463.69 1797.7 457.128C1797.7 453.955 1798.15 451.104 1799.07 448.576C1800.04 445.994 1801.3 443.816 1802.86 442.041C1804.42 440.266 1806.22 438.894 1808.27 437.926C1810.31 436.958 1812.46 436.474 1814.72 436.474C1816.98 436.474 1818.94 436.877 1820.61 437.684C1822.28 438.491 1823.97 439.593 1825.69 440.992L1825.37 434.295V419.208H1832.07V476.653H1826.58L1826.02 472.054H1825.77C1824.21 473.56 1822.41 474.878 1820.37 476.007C1818.38 477.083 1816.23 477.621 1813.91 477.621ZM1815.37 472.054C1817.19 472.054 1818.92 471.624 1820.53 470.763C1822.14 469.849 1823.76 468.477 1825.37 466.648V446.155C1823.7 444.649 1822.09 443.6 1820.53 443.009C1819.02 442.363 1817.46 442.041 1815.85 442.041C1814.29 442.041 1812.81 442.417 1811.41 443.17C1810.07 443.869 1808.88 444.891 1807.86 446.236C1806.84 447.527 1806.03 449.087 1805.44 450.916C1804.85 452.744 1804.55 454.788 1804.55 457.047C1804.55 461.781 1805.5 465.465 1807.38 468.101C1809.26 470.736 1811.92 472.054 1815.37 472.054Z" fill="#020304"/>
<path d="M1860.52 477.621C1858.1 477.621 1855.79 477.164 1853.58 476.25C1851.43 475.335 1849.52 474.017 1847.86 472.296C1846.19 470.521 1844.84 468.37 1843.82 465.842C1842.85 463.26 1842.37 460.355 1842.37 457.128C1842.37 453.847 1842.85 450.942 1843.82 448.414C1844.84 445.833 1846.19 443.654 1847.86 441.879C1849.52 440.104 1851.43 438.76 1853.58 437.845C1855.79 436.931 1858.1 436.474 1860.52 436.474C1862.94 436.474 1865.23 436.931 1867.38 437.845C1869.59 438.76 1871.52 440.104 1873.19 441.879C1874.86 443.654 1876.17 445.833 1877.14 448.414C1878.16 450.942 1878.68 453.847 1878.68 457.128C1878.68 460.355 1878.16 463.26 1877.14 465.842C1876.17 468.37 1874.86 470.521 1873.19 472.296C1871.52 474.017 1869.59 475.335 1867.38 476.25C1865.23 477.164 1862.94 477.621 1860.52 477.621ZM1860.52 472.135C1862.19 472.135 1863.72 471.785 1865.12 471.086C1866.52 470.333 1867.7 469.311 1868.67 468.02C1869.69 466.675 1870.47 465.089 1871.01 463.26C1871.55 461.431 1871.82 459.387 1871.82 457.128C1871.82 454.869 1871.55 452.825 1871.01 450.996C1870.47 449.114 1869.69 447.5 1868.67 446.155C1867.7 444.811 1866.52 443.789 1865.12 443.09C1863.72 442.336 1862.19 441.96 1860.52 441.96C1858.86 441.96 1857.32 442.336 1855.92 443.09C1854.53 443.789 1853.32 444.811 1852.29 446.155C1851.32 447.5 1850.57 449.114 1850.03 450.996C1849.5 452.825 1849.23 454.869 1849.23 457.128C1849.23 459.387 1849.5 461.431 1850.03 463.26C1850.57 465.089 1851.32 466.675 1852.29 468.02C1853.32 469.311 1854.53 470.333 1855.92 471.086C1857.32 471.785 1858.86 472.135 1860.52 472.135Z" fill="#020304"/>
<path d="M808.831 580.714C805.12 580.714 801.677 580.015 798.504 578.616C795.33 577.218 792.587 575.308 790.274 572.888L794.308 568.208C796.191 570.198 798.396 571.812 800.924 573.049C803.506 574.232 806.169 574.824 808.912 574.824C812.408 574.824 815.124 574.044 817.061 572.484C818.997 570.871 819.965 568.773 819.965 566.191C819.965 564.847 819.723 563.717 819.239 562.803C818.809 561.834 818.19 561.028 817.383 560.382C816.63 559.683 815.716 559.064 814.64 558.526C813.564 557.989 812.408 557.424 811.171 556.832L803.587 553.524C802.35 552.986 801.086 552.341 799.795 551.588C798.504 550.835 797.347 549.921 796.326 548.845C795.304 547.769 794.47 546.505 793.824 545.053C793.179 543.547 792.856 541.825 792.856 539.889C792.856 537.899 793.26 536.043 794.066 534.322C794.927 532.601 796.083 531.122 797.536 529.885C799.042 528.594 800.79 527.599 802.78 526.899C804.824 526.2 807.056 525.851 809.477 525.851C812.65 525.851 815.581 526.469 818.271 527.706C820.96 528.89 823.246 530.449 825.129 532.386L821.498 536.743C819.884 535.183 818.083 533.972 816.092 533.112C814.156 532.198 811.951 531.74 809.477 531.74C806.518 531.74 804.125 532.44 802.296 533.838C800.521 535.183 799.633 537.065 799.633 539.486C799.633 540.777 799.875 541.879 800.36 542.794C800.897 543.654 801.597 544.434 802.457 545.133C803.318 545.779 804.259 546.371 805.281 546.908C806.303 547.392 807.352 547.85 808.428 548.28L815.931 551.507C817.437 552.153 818.862 552.906 820.207 553.766C821.552 554.573 822.708 555.541 823.676 556.671C824.645 557.747 825.398 559.037 825.936 560.544C826.527 561.996 826.823 563.69 826.823 565.626C826.823 567.724 826.393 569.687 825.532 571.516C824.725 573.345 823.542 574.959 821.982 576.357C820.422 577.702 818.54 578.777 816.334 579.584C814.129 580.337 811.628 580.714 808.831 580.714Z" fill="#020304"/>
<path d="M836.6 579.746V540.535H843.216V579.746H836.6ZM839.989 532.466C838.698 532.466 837.595 532.063 836.681 531.256C835.82 530.449 835.39 529.427 835.39 528.19C835.39 526.899 835.82 525.877 836.681 525.124C837.595 524.318 838.698 523.914 839.989 523.914C841.279 523.914 842.355 524.318 843.216 525.124C844.13 525.877 844.587 526.899 844.587 528.19C844.587 529.427 844.13 530.449 843.216 531.256C842.355 532.063 841.279 532.466 839.989 532.466Z" fill="#020304"/>
<path d="M866.702 580.714C863.905 580.714 861.242 580.203 858.714 579.181C856.186 578.159 853.981 576.868 852.098 575.308L855.406 570.871C857.127 572.269 858.876 573.399 860.651 574.259C862.479 575.12 864.577 575.55 866.944 575.55C869.526 575.55 871.462 574.959 872.753 573.775C874.044 572.592 874.689 571.14 874.689 569.418C874.689 568.397 874.42 567.509 873.882 566.756C873.344 566.003 872.645 565.358 871.785 564.82C870.978 564.228 870.036 563.717 868.961 563.287C867.885 562.856 866.809 562.426 865.733 561.996C864.335 561.512 862.937 560.974 861.538 560.382C860.14 559.737 858.876 558.984 857.746 558.123C856.67 557.209 855.783 556.16 855.084 554.977C854.384 553.793 854.035 552.368 854.035 550.7C854.035 549.141 854.331 547.688 854.922 546.344C855.568 544.945 856.455 543.762 857.585 542.794C858.768 541.772 860.193 540.992 861.861 540.454C863.528 539.862 865.411 539.566 867.508 539.566C869.983 539.566 872.242 539.997 874.286 540.857C876.383 541.718 878.185 542.767 879.691 544.004L876.545 548.199C875.2 547.177 873.802 546.344 872.349 545.698C870.897 545.053 869.31 544.73 867.589 544.73C865.115 544.73 863.286 545.295 862.103 546.424C860.973 547.554 860.409 548.872 860.409 550.378C860.409 551.292 860.651 552.099 861.135 552.798C861.619 553.444 862.264 554.035 863.071 554.573C863.878 555.057 864.792 555.514 865.814 555.945C866.89 556.321 867.993 556.725 869.122 557.155C870.521 557.693 871.919 558.258 873.318 558.849C874.77 559.441 876.061 560.194 877.19 561.108C878.32 561.969 879.234 563.045 879.933 564.336C880.686 565.626 881.063 567.186 881.063 569.015C881.063 570.629 880.74 572.135 880.095 573.533C879.503 574.932 878.589 576.169 877.352 577.245C876.168 578.32 874.662 579.154 872.833 579.746C871.058 580.391 869.015 580.714 866.702 580.714Z" fill="#020304"/>
<path d="M901.025 580.714C898.927 580.714 897.152 580.391 895.7 579.746C894.301 579.1 893.145 578.213 892.23 577.083C891.37 575.954 890.751 574.582 890.375 572.968C889.998 571.355 889.81 569.58 889.81 567.643V545.94H884.001V540.938L890.133 540.535L890.939 529.562H896.506V540.535H907.076V545.94H896.506V567.724C896.506 570.145 896.937 572.027 897.797 573.372C898.712 574.663 900.298 575.308 902.558 575.308C903.257 575.308 904.01 575.201 904.817 574.985C905.623 574.77 906.35 574.528 906.995 574.259L908.286 579.262C907.21 579.638 906.027 579.961 904.736 580.23C903.499 580.553 902.262 580.714 901.025 580.714Z" fill="#020304"/>
<path d="M930.733 580.714C928.097 580.714 925.623 580.257 923.31 579.342C921.051 578.374 919.061 577.029 917.34 575.308C915.672 573.533 914.355 571.382 913.387 568.854C912.418 566.326 911.934 563.448 911.934 560.221C911.934 556.994 912.418 554.116 913.387 551.588C914.408 549.006 915.726 546.828 917.34 545.053C919.007 543.278 920.89 541.933 922.988 541.019C925.085 540.05 927.264 539.566 929.523 539.566C931.997 539.566 934.202 539.997 936.139 540.857C938.129 541.718 939.769 542.955 941.06 544.569C942.405 546.182 943.427 548.119 944.126 550.378C944.825 552.637 945.175 555.165 945.175 557.962C945.175 558.661 945.148 559.36 945.094 560.059C945.094 560.705 945.04 561.27 944.933 561.754H918.469C918.738 565.949 920.029 569.284 922.342 571.758C924.709 574.179 927.775 575.389 931.54 575.389C933.422 575.389 935.144 575.12 936.703 574.582C938.317 573.99 939.85 573.237 941.302 572.323L943.642 576.68C941.921 577.756 940.011 578.697 937.914 579.504C935.816 580.31 933.422 580.714 930.733 580.714ZM918.389 556.994H939.366C939.366 553.013 938.505 550.001 936.784 547.957C935.117 545.86 932.75 544.811 929.684 544.811C928.286 544.811 926.941 545.08 925.65 545.618C924.413 546.155 923.283 546.962 922.261 548.038C921.239 549.06 920.379 550.324 919.68 551.83C919.034 553.336 918.604 555.057 918.389 556.994Z" fill="#020304"/>
<path d="M954.864 579.746V540.535H960.351L960.915 546.182H961.157C962.879 544.3 964.734 542.74 966.724 541.503C968.768 540.212 970.974 539.566 973.34 539.566C976.352 539.566 978.692 540.239 980.36 541.583C982.081 542.874 983.345 544.703 984.152 547.07C986.195 544.811 988.239 543.009 990.283 541.664C992.381 540.266 994.64 539.566 997.061 539.566C1001.09 539.566 1004.08 540.857 1006.02 543.439C1008.01 546.021 1009 549.84 1009 554.896V579.746H1002.39V555.783C1002.39 552.072 1001.79 549.41 1000.61 547.796C999.427 546.128 997.598 545.295 995.124 545.295C992.166 545.295 988.885 547.312 985.281 551.346V579.746H978.665V555.783C978.665 552.072 978.074 549.41 976.89 547.796C975.707 546.128 973.851 545.295 971.323 545.295C968.365 545.295 965.084 547.312 961.48 551.346V579.746H954.864Z" fill="#020304"/>
<path d="M1030.79 580.714C1027.51 580.714 1024.77 579.746 1022.56 577.809C1020.41 575.873 1019.34 573.13 1019.34 569.58C1019.34 565.277 1021.25 561.996 1025.07 559.737C1028.88 557.424 1034.99 555.81 1043.38 554.896C1043.38 553.659 1043.25 552.448 1042.98 551.265C1042.76 550.082 1042.36 549.033 1041.77 548.119C1041.17 547.204 1040.34 546.478 1039.27 545.94C1038.24 545.349 1036.93 545.053 1035.31 545.053C1033.05 545.053 1030.93 545.483 1028.94 546.344C1026.95 547.204 1025.17 548.172 1023.61 549.248L1021.03 544.649C1022.86 543.466 1025.09 542.336 1027.73 541.261C1030.36 540.131 1033.27 539.566 1036.44 539.566C1041.23 539.566 1044.7 541.046 1046.85 544.004C1049 546.908 1050.08 550.808 1050.08 555.703V579.746H1044.59L1044.03 575.066H1043.78C1041.9 576.626 1039.88 577.971 1037.73 579.1C1035.58 580.176 1033.27 580.714 1030.79 580.714ZM1032.73 575.389C1034.61 575.389 1036.39 574.959 1038.05 574.098C1039.72 573.184 1041.5 571.866 1043.38 570.145V559.253C1040.1 559.683 1037.33 560.194 1035.07 560.786C1032.86 561.377 1031.06 562.076 1029.66 562.883C1028.32 563.69 1027.32 564.631 1026.68 565.707C1026.09 566.729 1025.79 567.859 1025.79 569.096C1025.79 571.355 1026.46 572.968 1027.81 573.937C1029.15 574.905 1030.79 575.389 1032.73 575.389Z" fill="#020304"/>
<path d="M1091.96 580.714C1087.01 580.714 1083.06 578.939 1080.1 575.389C1077.19 571.839 1075.74 566.783 1075.74 560.221C1075.74 557.047 1076.2 554.197 1077.11 551.669C1078.08 549.087 1079.34 546.908 1080.9 545.133C1082.46 543.358 1084.27 541.987 1086.31 541.019C1088.35 540.05 1090.51 539.566 1092.76 539.566C1095.02 539.566 1096.99 539.97 1098.65 540.777C1100.32 541.583 1102.02 542.686 1103.74 544.085L1103.41 537.388V522.301H1110.11V579.746H1104.63L1104.06 575.147H1103.82C1102.26 576.653 1100.46 577.971 1098.41 579.1C1096.42 580.176 1094.27 580.714 1091.96 580.714ZM1093.41 575.147C1095.24 575.147 1096.96 574.717 1098.57 573.856C1100.19 572.942 1101.8 571.57 1103.41 569.741V549.248C1101.75 547.742 1100.13 546.693 1098.57 546.102C1097.07 545.456 1095.51 545.133 1093.89 545.133C1092.33 545.133 1090.86 545.51 1089.46 546.263C1088.11 546.962 1086.93 547.984 1085.91 549.329C1084.89 550.62 1084.08 552.18 1083.49 554.008C1082.89 555.837 1082.6 557.881 1082.6 560.14C1082.6 564.873 1083.54 568.558 1085.42 571.193C1087.31 573.829 1089.97 575.147 1093.41 575.147Z" fill="#020304"/>
<path d="M1139.21 580.714C1136.58 580.714 1134.1 580.257 1131.79 579.342C1129.53 578.374 1127.54 577.029 1125.82 575.308C1124.15 573.533 1122.83 571.382 1121.87 568.854C1120.9 566.326 1120.41 563.448 1120.41 560.221C1120.41 556.994 1120.9 554.116 1121.87 551.588C1122.89 549.006 1124.21 546.828 1125.82 545.053C1127.49 543.278 1129.37 541.933 1131.47 541.019C1133.56 540.05 1135.74 539.566 1138 539.566C1140.48 539.566 1142.68 539.997 1144.62 540.857C1146.61 541.718 1148.25 542.955 1149.54 544.569C1150.88 546.182 1151.91 548.119 1152.61 550.378C1153.3 552.637 1153.65 555.165 1153.65 557.962C1153.65 558.661 1153.63 559.36 1153.57 560.059C1153.57 560.705 1153.52 561.27 1153.41 561.754H1126.95C1127.22 565.949 1128.51 569.284 1130.82 571.758C1133.19 574.179 1136.25 575.389 1140.02 575.389C1141.9 575.389 1143.62 575.12 1145.18 574.582C1146.8 573.99 1148.33 573.237 1149.78 572.323L1152.12 576.68C1150.4 577.756 1148.49 578.697 1146.39 579.504C1144.3 580.31 1141.9 580.714 1139.21 580.714ZM1126.87 556.994H1147.85C1147.85 553.013 1146.98 550.001 1145.26 547.957C1143.6 545.86 1141.23 544.811 1138.16 544.811C1136.76 544.811 1135.42 545.08 1134.13 545.618C1132.89 546.155 1131.76 546.962 1130.74 548.038C1129.72 549.06 1128.86 550.324 1128.16 551.83C1127.51 553.336 1127.08 555.057 1126.87 556.994Z" fill="#020304"/>
<path d="M1180.14 579.746V526.819H1195.23C1198.19 526.819 1200.88 527.088 1203.3 527.626C1205.77 528.163 1207.87 529.051 1209.59 530.288C1211.31 531.471 1212.66 533.058 1213.62 535.048C1214.59 537.038 1215.08 539.486 1215.08 542.39C1215.08 545.187 1214.59 547.608 1213.62 549.652C1212.71 551.696 1211.39 553.39 1209.67 554.734C1207.95 556.079 1205.88 557.101 1203.46 557.8C1201.09 558.446 1198.46 558.769 1195.55 558.769H1186.84V579.746H1180.14ZM1186.84 553.282H1194.74C1199.37 553.282 1202.79 552.422 1204.99 550.7C1207.25 548.925 1208.38 546.155 1208.38 542.39C1208.38 538.571 1207.2 535.936 1204.83 534.483C1202.52 532.977 1199.05 532.224 1194.42 532.224H1186.84V553.282Z" fill="#020304"/>
<path d="M1225.19 579.746V540.535H1230.68L1231.24 547.635H1231.49C1232.83 545.16 1234.45 543.197 1236.33 541.745C1238.26 540.293 1240.36 539.566 1242.62 539.566C1244.18 539.566 1245.58 539.835 1246.82 540.373L1245.53 546.182C1244.88 545.967 1244.29 545.806 1243.75 545.698C1243.21 545.591 1242.54 545.537 1241.73 545.537C1240.07 545.537 1238.32 546.209 1236.49 547.554C1234.71 548.899 1233.15 551.238 1231.81 554.573V579.746H1225.19Z" fill="#020304"/>
<path d="M1267.63 580.714C1265.2 580.714 1262.89 580.257 1260.69 579.342C1258.54 578.428 1256.63 577.11 1254.96 575.389C1253.29 573.614 1251.95 571.462 1250.92 568.934C1249.96 566.353 1249.47 563.448 1249.47 560.221C1249.47 556.94 1249.96 554.035 1250.92 551.507C1251.95 548.925 1253.29 546.747 1254.96 544.972C1256.63 543.197 1258.54 541.852 1260.69 540.938C1262.89 540.024 1265.2 539.566 1267.63 539.566C1270.05 539.566 1272.33 540.024 1274.48 540.938C1276.69 541.852 1278.62 543.197 1280.29 544.972C1281.96 546.747 1283.28 548.925 1284.25 551.507C1285.27 554.035 1285.78 556.94 1285.78 560.221C1285.78 563.448 1285.27 566.353 1284.25 568.934C1283.28 571.462 1281.96 573.614 1280.29 575.389C1278.62 577.11 1276.69 578.428 1274.48 579.342C1272.33 580.257 1270.05 580.714 1267.63 580.714ZM1267.63 575.228C1269.29 575.228 1270.83 574.878 1272.22 574.179C1273.62 573.426 1274.81 572.404 1275.77 571.113C1276.8 569.768 1277.58 568.181 1278.11 566.353C1278.65 564.524 1278.92 562.48 1278.92 560.221C1278.92 557.962 1278.65 555.918 1278.11 554.089C1277.58 552.206 1276.8 550.593 1275.77 549.248C1274.81 547.903 1273.62 546.881 1272.22 546.182C1270.83 545.429 1269.29 545.053 1267.63 545.053C1265.96 545.053 1264.42 545.429 1263.03 546.182C1261.63 546.881 1260.42 547.903 1259.4 549.248C1258.43 550.593 1257.67 552.206 1257.14 554.089C1256.6 555.918 1256.33 557.962 1256.33 560.221C1256.33 562.48 1256.6 564.524 1257.14 566.353C1257.67 568.181 1258.43 569.768 1259.4 571.113C1260.42 572.404 1261.63 573.426 1263.03 574.179C1264.42 574.878 1265.96 575.228 1267.63 575.228Z" fill="#020304"/>
<path d="M1307.11 580.714C1305.01 580.714 1303.24 580.391 1301.79 579.746C1300.39 579.1 1299.23 578.213 1298.32 577.083C1297.46 575.954 1296.84 574.582 1296.46 572.968C1296.08 571.355 1295.9 569.58 1295.9 567.643V545.94H1290.09V540.938L1296.22 540.535L1297.02 529.562H1302.59V540.535H1313.16V545.94H1302.59V567.724C1302.59 570.145 1303.02 572.027 1303.88 573.372C1304.8 574.663 1306.38 575.308 1308.64 575.308C1309.34 575.308 1310.1 575.201 1310.9 574.985C1311.71 574.77 1312.43 574.528 1313.08 574.259L1314.37 579.262C1313.3 579.638 1312.11 579.961 1310.82 580.23C1309.58 580.553 1308.35 580.714 1307.11 580.714Z" fill="#020304"/>
<path d="M1336.82 580.714C1334.18 580.714 1331.71 580.257 1329.4 579.342C1327.14 578.374 1325.15 577.029 1323.43 575.308C1321.76 573.533 1320.44 571.382 1319.47 568.854C1318.5 566.326 1318.02 563.448 1318.02 560.221C1318.02 556.994 1318.5 554.116 1319.47 551.588C1320.49 549.006 1321.81 546.828 1323.43 545.053C1325.09 543.278 1326.98 541.933 1329.07 541.019C1331.17 540.05 1333.35 539.566 1335.61 539.566C1338.08 539.566 1340.29 539.997 1342.22 540.857C1344.21 541.718 1345.85 542.955 1347.15 544.569C1348.49 546.182 1349.51 548.119 1350.21 550.378C1350.91 552.637 1351.26 555.165 1351.26 557.962C1351.26 558.661 1351.23 559.36 1351.18 560.059C1351.18 560.705 1351.13 561.27 1351.02 561.754H1324.55C1324.82 565.949 1326.11 569.284 1328.43 571.758C1330.79 574.179 1333.86 575.389 1337.63 575.389C1339.51 575.389 1341.23 575.12 1342.79 574.582C1344.4 573.99 1345.94 573.237 1347.39 572.323L1349.73 576.68C1348.01 577.756 1346.1 578.697 1344 579.504C1341.9 580.31 1339.51 580.714 1336.82 580.714ZM1324.47 556.994H1345.45C1345.45 553.013 1344.59 550.001 1342.87 547.957C1341.2 545.86 1338.84 544.811 1335.77 544.811C1334.37 544.811 1333.03 545.08 1331.74 545.618C1330.5 546.155 1329.37 546.962 1328.35 548.038C1327.32 549.06 1326.46 550.324 1325.76 551.83C1325.12 553.336 1324.69 555.057 1324.47 556.994Z" fill="#020304"/>
<path d="M1376.44 580.714C1373.86 580.714 1371.44 580.257 1369.18 579.342C1366.92 578.428 1364.96 577.11 1363.29 575.389C1361.68 573.614 1360.38 571.462 1359.42 568.934C1358.5 566.353 1358.05 563.448 1358.05 560.221C1358.05 556.94 1358.56 554.035 1359.58 551.507C1360.6 548.925 1361.97 546.747 1363.69 544.972C1365.41 543.197 1367.4 541.852 1369.66 540.938C1371.98 540.024 1374.4 539.566 1376.92 539.566C1379.51 539.566 1381.71 540.024 1383.54 540.938C1385.37 541.852 1386.98 542.928 1388.38 544.165L1384.99 548.522C1383.86 547.5 1382.65 546.666 1381.36 546.021C1380.12 545.375 1378.73 545.053 1377.17 545.053C1375.39 545.053 1373.75 545.429 1372.24 546.182C1370.74 546.881 1369.45 547.903 1368.37 549.248C1367.3 550.593 1366.44 552.206 1365.79 554.089C1365.2 555.918 1364.9 557.962 1364.9 560.221C1364.9 562.48 1365.2 564.524 1365.79 566.353C1366.38 568.181 1367.19 569.768 1368.21 571.113C1369.29 572.404 1370.58 573.426 1372.08 574.179C1373.59 574.878 1375.23 575.228 1377.01 575.228C1378.83 575.228 1380.5 574.851 1382.01 574.098C1383.57 573.291 1384.97 572.35 1386.2 571.274L1389.11 575.712C1387.33 577.271 1385.37 578.509 1383.22 579.423C1381.07 580.284 1378.81 580.714 1376.44 580.714ZM1369.26 597.98L1368.61 594.752C1372 594.483 1374.32 594.026 1375.55 593.381C1376.79 592.789 1377.41 591.902 1377.41 590.718C1377.41 589.643 1376.95 588.809 1376.04 588.217C1375.12 587.626 1373.51 587.168 1371.2 586.846L1374.75 579.504H1379.02L1376.68 584.909C1378.57 585.34 1380.02 585.985 1381.04 586.846C1382.06 587.706 1382.57 588.97 1382.57 590.638C1382.57 593.004 1381.42 594.752 1379.1 595.882C1376.84 597.065 1373.56 597.764 1369.26 597.98Z" fill="#020304"/>
<path d="M1405.99 580.714C1402.71 580.714 1399.97 579.746 1397.76 577.809C1395.61 575.873 1394.54 573.13 1394.54 569.58C1394.54 565.277 1396.45 561.996 1400.26 559.737C1404.08 557.424 1410.19 555.81 1418.58 554.896C1418.58 553.659 1418.44 552.448 1418.18 551.265C1417.96 550.082 1417.56 549.033 1416.97 548.119C1416.37 547.204 1415.54 546.478 1414.46 545.94C1413.44 545.349 1412.12 545.053 1410.51 545.053C1408.25 545.053 1406.13 545.483 1404.14 546.344C1402.15 547.204 1400.37 548.172 1398.81 549.248L1396.23 544.649C1398.06 543.466 1400.29 542.336 1402.93 541.261C1405.56 540.131 1408.47 539.566 1411.64 539.566C1416.43 539.566 1419.9 541.046 1422.05 544.004C1424.2 546.908 1425.28 550.808 1425.28 555.703V579.746H1419.79L1419.22 575.066H1418.98C1417.1 576.626 1415.08 577.971 1412.93 579.1C1410.78 580.176 1408.47 580.714 1405.99 580.714ZM1407.93 575.389C1409.81 575.389 1411.59 574.959 1413.25 574.098C1414.92 573.184 1416.7 571.866 1418.58 570.145V559.253C1415.3 559.683 1412.53 560.194 1410.27 560.786C1408.06 561.377 1406.26 562.076 1404.86 562.883C1403.52 563.69 1402.52 564.631 1401.88 565.707C1401.29 566.729 1400.99 567.859 1400.99 569.096C1400.99 571.355 1401.66 572.968 1403.01 573.937C1404.35 574.905 1405.99 575.389 1407.93 575.389ZM1417.29 533.193C1415.84 533.193 1414.6 532.843 1413.58 532.144C1412.56 531.444 1411.61 530.665 1410.75 529.804C1409.89 528.943 1409.06 528.163 1408.25 527.464C1407.5 526.765 1406.67 526.415 1405.75 526.415C1404.51 526.415 1403.6 527.007 1403.01 528.19C1402.42 529.374 1402.07 530.907 1401.96 532.789L1397.52 532.547C1397.58 530.987 1397.76 529.535 1398.09 528.19C1398.46 526.846 1398.97 525.689 1399.62 524.721C1400.26 523.753 1401.07 523 1402.04 522.462C1403.06 521.87 1404.27 521.574 1405.67 521.574C1407.12 521.574 1408.36 521.924 1409.38 522.623C1410.4 523.323 1411.34 524.102 1412.21 524.963C1413.07 525.824 1413.87 526.604 1414.63 527.303C1415.43 528.002 1416.32 528.352 1417.29 528.352C1418.47 528.352 1419.36 527.76 1419.95 526.577C1420.54 525.393 1420.89 523.86 1421 521.978L1425.44 522.301C1425.38 523.86 1425.17 525.313 1424.79 526.657C1424.47 527.948 1423.99 529.078 1423.34 530.046C1422.69 531.014 1421.86 531.794 1420.84 532.386C1419.87 532.924 1418.69 533.193 1417.29 533.193Z" fill="#020304"/>
<path d="M1452.86 580.714C1450.44 580.714 1448.13 580.257 1445.92 579.342C1443.77 578.428 1441.86 577.11 1440.19 575.389C1438.53 573.614 1437.18 571.462 1436.16 568.934C1435.19 566.353 1434.71 563.448 1434.71 560.221C1434.71 556.94 1435.19 554.035 1436.16 551.507C1437.18 548.925 1438.53 546.747 1440.19 544.972C1441.86 543.197 1443.77 541.852 1445.92 540.938C1448.13 540.024 1450.44 539.566 1452.86 539.566C1455.28 539.566 1457.57 540.024 1459.72 540.938C1461.92 541.852 1463.86 543.197 1465.53 544.972C1467.2 546.747 1468.51 548.925 1469.48 551.507C1470.5 554.035 1471.01 556.94 1471.01 560.221C1471.01 563.448 1470.5 566.353 1469.48 568.934C1468.51 571.462 1467.2 573.614 1465.53 575.389C1463.86 577.11 1461.92 578.428 1459.72 579.342C1457.57 580.257 1455.28 580.714 1452.86 580.714ZM1452.86 575.228C1454.53 575.228 1456.06 574.878 1457.46 574.179C1458.86 573.426 1460.04 572.404 1461.01 571.113C1462.03 569.768 1462.81 568.181 1463.35 566.353C1463.89 564.524 1464.16 562.48 1464.16 560.221C1464.16 557.962 1463.89 555.918 1463.35 554.089C1462.81 552.206 1462.03 550.593 1461.01 549.248C1460.04 547.903 1458.86 546.881 1457.46 546.182C1456.06 545.429 1454.53 545.053 1452.86 545.053C1451.19 545.053 1449.66 545.429 1448.26 546.182C1446.86 546.881 1445.65 547.903 1444.63 549.248C1443.66 550.593 1442.91 552.206 1442.37 554.089C1441.83 555.918 1441.57 557.962 1441.57 560.221C1441.57 562.48 1441.83 564.524 1442.37 566.353C1442.91 568.181 1443.66 569.768 1444.63 571.113C1445.65 572.404 1446.86 573.426 1448.26 574.179C1449.66 574.878 1451.19 575.228 1452.86 575.228Z" fill="#020304"/>
<path d="M1510.89 580.714C1505.94 580.714 1501.98 578.939 1499.03 575.389C1496.12 571.839 1494.67 566.783 1494.67 560.221C1494.67 557.047 1495.13 554.197 1496.04 551.669C1497.01 549.087 1498.27 546.908 1499.83 545.133C1501.39 543.358 1503.19 541.987 1505.24 541.019C1507.28 540.05 1509.43 539.566 1511.69 539.566C1513.95 539.566 1515.92 539.97 1517.58 540.777C1519.25 541.583 1520.94 542.686 1522.67 544.085L1522.34 537.388V522.301H1529.04V579.746H1523.55L1522.99 575.147H1522.75C1521.19 576.653 1519.38 577.971 1517.34 579.1C1515.35 580.176 1513.2 580.714 1510.89 580.714ZM1512.34 575.147C1514.17 575.147 1515.89 574.717 1517.5 573.856C1519.12 572.942 1520.73 571.57 1522.34 569.741V549.248C1520.68 547.742 1519.06 546.693 1517.5 546.102C1516 545.456 1514.44 545.133 1512.82 545.133C1511.26 545.133 1509.78 545.51 1508.39 546.263C1507.04 546.962 1505.86 547.984 1504.84 549.329C1503.81 550.62 1503.01 552.18 1502.41 554.008C1501.82 555.837 1501.53 557.881 1501.53 560.14C1501.53 564.873 1502.47 568.558 1504.35 571.193C1506.23 573.829 1508.9 575.147 1512.34 575.147Z" fill="#020304"/>
<path d="M1551.28 580.714C1548 580.714 1545.26 579.746 1543.05 577.809C1540.9 575.873 1539.83 573.13 1539.83 569.58C1539.83 565.277 1541.74 561.996 1545.55 559.737C1549.37 557.424 1555.48 555.81 1563.87 554.896C1563.87 553.659 1563.73 552.448 1563.47 551.265C1563.25 550.082 1562.85 549.033 1562.26 548.119C1561.66 547.204 1560.83 546.478 1559.75 545.94C1558.73 545.349 1557.41 545.053 1555.8 545.053C1553.54 545.053 1551.42 545.483 1549.43 546.344C1547.44 547.204 1545.66 548.172 1544.1 549.248L1541.52 544.649C1543.35 543.466 1545.58 542.336 1548.22 541.261C1550.85 540.131 1553.76 539.566 1556.93 539.566C1561.72 539.566 1565.19 541.046 1567.34 544.004C1569.49 546.908 1570.57 550.808 1570.57 555.703V579.746H1565.08L1564.51 575.066H1564.27C1562.39 576.626 1560.37 577.971 1558.22 579.1C1556.07 580.176 1553.76 580.714 1551.28 580.714ZM1553.22 575.389C1555.1 575.389 1556.88 574.959 1558.54 574.098C1560.21 573.184 1561.99 571.866 1563.87 570.145V559.253C1560.59 559.683 1557.82 560.194 1555.56 560.786C1553.35 561.377 1551.55 562.076 1550.15 562.883C1548.81 563.69 1547.81 564.631 1547.17 565.707C1546.58 566.729 1546.28 567.859 1546.28 569.096C1546.28 571.355 1546.95 572.968 1548.3 573.937C1549.64 574.905 1551.28 575.389 1553.22 575.389Z" fill="#020304"/>
<path d="M1608.82 550.136L1606.32 558.204H1622.21L1619.71 550.136C1618.74 547.177 1617.83 544.246 1616.97 541.341C1616.1 538.383 1615.24 535.371 1614.38 532.305H1614.06C1613.25 535.371 1612.42 538.383 1611.56 541.341C1610.7 544.246 1609.78 547.177 1608.82 550.136ZM1592.68 579.746L1610.59 526.819H1618.18L1636.09 579.746H1628.91L1623.9 563.609H1604.62L1599.54 579.746H1592.68Z" fill="#020304"/>
<path d="M1642.94 579.746V540.535H1648.43L1648.99 546.182H1649.23C1650.95 544.3 1652.81 542.74 1654.8 541.503C1656.84 540.212 1659.05 539.566 1661.42 539.566C1664.43 539.566 1666.77 540.239 1668.44 541.583C1670.16 542.874 1671.42 544.703 1672.23 547.07C1674.27 544.811 1676.32 543.009 1678.36 541.664C1680.46 540.266 1682.72 539.566 1685.14 539.566C1689.17 539.566 1692.16 540.857 1694.09 543.439C1696.08 546.021 1697.08 549.84 1697.08 554.896V579.746H1690.46V555.783C1690.46 552.072 1689.87 549.41 1688.69 547.796C1687.5 546.128 1685.67 545.295 1683.2 545.295C1680.24 545.295 1676.96 547.312 1673.36 551.346V579.746H1666.74V555.783C1666.74 552.072 1666.15 549.41 1664.97 547.796C1663.78 546.128 1661.93 545.295 1659.4 545.295C1656.44 545.295 1653.16 547.312 1649.56 551.346V579.746H1642.94Z" fill="#020304"/>
<path d="M1718.87 580.714C1715.59 580.714 1712.85 579.746 1710.64 577.809C1708.49 575.873 1707.41 573.13 1707.41 569.58C1707.41 565.277 1709.32 561.996 1713.14 559.737C1716.96 557.424 1723.06 555.81 1731.46 554.896C1731.46 553.659 1731.32 552.448 1731.05 551.265C1730.84 550.082 1730.43 549.033 1729.84 548.119C1729.25 547.204 1728.42 546.478 1727.34 545.94C1726.32 545.349 1725 545.053 1723.39 545.053C1721.13 545.053 1719 545.483 1717.01 546.344C1715.02 547.204 1713.25 548.172 1711.69 549.248L1709.11 544.649C1710.94 543.466 1713.17 542.336 1715.8 541.261C1718.44 540.131 1721.34 539.566 1724.52 539.566C1729.3 539.566 1732.77 541.046 1734.93 544.004C1737.08 546.908 1738.15 550.808 1738.15 555.703V579.746H1732.67L1732.1 575.066H1731.86C1729.98 576.626 1727.96 577.971 1725.81 579.1C1723.66 580.176 1721.34 580.714 1718.87 580.714ZM1720.81 575.389C1722.69 575.389 1724.46 574.959 1726.13 574.098C1727.8 573.184 1729.57 571.866 1731.46 570.145V559.253C1728.17 559.683 1725.4 560.194 1723.15 560.786C1720.94 561.377 1719.14 562.076 1717.74 562.883C1716.4 563.69 1715.4 564.631 1714.75 565.707C1714.16 566.729 1713.87 567.859 1713.87 569.096C1713.87 571.355 1714.54 572.968 1715.88 573.937C1717.23 574.905 1718.87 575.389 1720.81 575.389Z" fill="#020304"/>
<path d="M1746.37 579.746V576.196L1767.03 545.94H1748.63V540.535H1775.42V544.085L1754.77 574.34H1776.06V579.746H1746.37Z" fill="#020304"/>
<path d="M1799.22 580.714C1796.8 580.714 1794.49 580.257 1792.29 579.342C1790.13 578.428 1788.22 577.11 1786.56 575.389C1784.89 573.614 1783.54 571.462 1782.52 568.934C1781.55 566.353 1781.07 563.448 1781.07 560.221C1781.07 556.94 1781.55 554.035 1782.52 551.507C1783.54 548.925 1784.89 546.747 1786.56 544.972C1788.22 543.197 1790.13 541.852 1792.29 540.938C1794.49 540.024 1796.8 539.566 1799.22 539.566C1801.64 539.566 1803.93 540.024 1806.08 540.938C1808.29 541.852 1810.22 543.197 1811.89 544.972C1813.56 546.747 1814.88 548.925 1815.84 551.507C1816.87 554.035 1817.38 556.94 1817.38 560.221C1817.38 563.448 1816.87 566.353 1815.84 568.934C1814.88 571.462 1813.56 573.614 1811.89 575.389C1810.22 577.11 1808.29 578.428 1806.08 579.342C1803.93 580.257 1801.64 580.714 1799.22 580.714ZM1799.22 575.228C1800.89 575.228 1802.42 574.878 1803.82 574.179C1805.22 573.426 1806.4 572.404 1807.37 571.113C1808.39 569.768 1809.17 568.181 1809.71 566.353C1810.25 564.524 1810.52 562.48 1810.52 560.221C1810.52 557.962 1810.25 555.918 1809.71 554.089C1809.17 552.206 1808.39 550.593 1807.37 549.248C1806.4 547.903 1805.22 546.881 1803.82 546.182C1802.42 545.429 1800.89 545.053 1799.22 545.053C1797.56 545.053 1796.02 545.429 1794.62 546.182C1793.23 546.881 1792.02 547.903 1790.99 549.248C1790.03 550.593 1789.27 552.206 1788.74 554.089C1788.2 555.918 1787.93 557.962 1787.93 560.221C1787.93 562.48 1788.2 564.524 1788.74 566.353C1789.27 568.181 1790.03 569.768 1790.99 571.113C1792.02 572.404 1793.23 573.426 1794.62 574.179C1796.02 574.878 1797.56 575.228 1799.22 575.228ZM1786.72 531.337L1795.92 520.042H1802.53L1811.73 531.337L1808.91 533.919L1799.39 524.802H1799.06L1789.54 533.919L1786.72 531.337Z" fill="#020304"/>
<path d="M1827.7 579.746V540.535H1833.19L1833.75 546.182H1834C1835.88 544.3 1837.84 542.74 1839.89 541.503C1841.98 540.212 1844.4 539.566 1847.15 539.566C1851.29 539.566 1854.3 540.857 1856.18 543.439C1858.12 546.021 1859.09 549.84 1859.09 554.896V579.746H1852.47V555.783C1852.47 552.072 1851.88 549.41 1850.7 547.796C1849.51 546.128 1847.63 545.295 1845.05 545.295C1843.01 545.295 1841.2 545.806 1839.64 546.828C1838.08 547.85 1836.31 549.356 1834.32 551.346V579.746H1827.7Z" fill="#020304"/>
<path d="M1871.83 579.746V540.535H1878.44V579.746H1871.83ZM1875.21 532.466C1873.92 532.466 1872.82 532.063 1871.91 531.256C1871.05 530.449 1870.62 529.427 1870.62 528.19C1870.62 526.899 1871.05 525.877 1871.91 525.124C1872.82 524.318 1873.92 523.914 1875.21 523.914C1876.51 523.914 1877.58 524.318 1878.44 525.124C1879.36 525.877 1879.81 526.899 1879.81 528.19C1879.81 529.427 1879.36 530.449 1878.44 531.256C1877.58 532.063 1876.51 532.466 1875.21 532.466Z" fill="#020304"/>
<path d="M1900.72 580.714C1897.44 580.714 1894.69 579.746 1892.49 577.809C1890.34 575.873 1889.26 573.13 1889.26 569.58C1889.26 565.277 1891.17 561.996 1894.99 559.737C1898.81 557.424 1904.91 555.81 1913.3 554.896C1913.3 553.659 1913.17 552.448 1912.9 551.265C1912.69 550.082 1912.28 549.033 1911.69 548.119C1911.1 547.204 1910.26 546.478 1909.19 545.94C1908.17 545.349 1906.85 545.053 1905.24 545.053C1902.98 545.053 1900.85 545.483 1898.86 546.344C1896.87 547.204 1895.1 548.172 1893.54 549.248L1890.96 544.649C1892.78 543.466 1895.02 542.336 1897.65 541.261C1900.29 540.131 1903.19 539.566 1906.37 539.566C1911.15 539.566 1914.62 541.046 1916.77 544.004C1918.92 546.908 1920 550.808 1920 555.703V579.746H1914.51L1913.95 575.066H1913.71C1911.82 576.626 1909.81 577.971 1907.66 579.1C1905.5 580.176 1903.19 580.714 1900.72 580.714ZM1902.65 575.389C1904.54 575.389 1906.31 574.959 1907.98 574.098C1909.65 573.184 1911.42 571.866 1913.3 570.145V559.253C1910.02 559.683 1907.25 560.194 1904.99 560.786C1902.79 561.377 1900.99 562.076 1899.59 562.883C1898.24 563.69 1897.25 564.631 1896.6 565.707C1896.01 566.729 1895.72 567.859 1895.72 569.096C1895.72 571.355 1896.39 572.968 1897.73 573.937C1899.08 574.905 1900.72 575.389 1902.65 575.389Z" fill="#020304"/>
</svg>
