<svg width="1080" height="1391" viewBox="0 0 1080 1391" fill="none" xmlns="http://www.w3.org/2000/svg">
<path d="M97.5137 1175.52C87.9496 1175.52 78.9254 1173.94 70.4411 1170.77C61.9568 1167.46 54.4752 1162.63 47.9963 1156.3C41.6716 1149.97 36.6582 1142.13 32.9559 1132.78C29.2537 1123.29 27.4026 1112.36 27.4026 1099.99C27.4026 1087.78 29.3308 1076.93 33.1873 1067.43C37.0438 1057.78 42.2115 1049.64 48.6904 1043.01C55.1694 1036.38 62.7281 1031.33 71.3667 1027.86C80.0052 1024.39 89.1066 1022.66 98.6707 1022.66C108.389 1022.66 117.105 1024.62 124.818 1028.54C132.531 1032.31 138.933 1036.75 144.023 1041.88L125.975 1063.14C122.118 1059.67 118.03 1056.88 113.711 1054.77C109.546 1052.51 104.764 1051.38 99.3649 1051.38C94.2743 1051.38 89.4151 1052.51 84.7873 1054.77C80.3138 1056.88 76.3801 1059.97 72.9864 1064.04C69.7469 1068.11 67.1245 1073.09 65.1191 1078.96C63.268 1084.84 62.3425 1091.48 62.3425 1098.86C62.3425 1114.09 65.659 1125.92 72.2922 1134.37C78.9254 1142.66 87.7954 1146.8 98.9021 1146.8C105.072 1146.8 110.549 1145.52 115.331 1142.96C120.267 1140.24 124.586 1136.93 128.289 1133.01L146.337 1153.81C133.688 1168.28 117.413 1175.52 97.5137 1175.52Z" fill="black"/>
<path d="M169.252 1172.81V1025.37H263.659V1053.41H203.266V1083.04H254.635V1110.85H203.266V1144.77H265.973V1172.81H169.252Z" fill="black"/>
<path d="M296.019 1172.81V1025.37H330.959L370.296 1098.64L385.105 1131.2H386.03C385.259 1123.36 384.333 1114.62 383.253 1104.97C382.328 1095.32 381.865 1086.13 381.865 1077.38V1025.37H414.26V1172.81H379.32L339.983 1099.32L325.174 1067.21H324.249C325.02 1075.35 325.869 1084.09 326.794 1093.44C327.874 1102.78 328.414 1111.83 328.414 1120.57V1172.81H296.019Z" fill="black"/>
<path d="M495.949 1175.52C486.077 1175.52 476.204 1173.79 466.331 1170.32C456.613 1166.7 447.897 1161.35 440.184 1154.26L459.621 1131.43C465.02 1135.95 470.959 1139.64 477.438 1142.51C484.071 1145.37 490.55 1146.8 496.875 1146.8C503.971 1146.8 509.216 1145.52 512.609 1142.96C516.157 1140.4 517.932 1136.93 517.932 1132.56C517.932 1130.3 517.392 1128.34 516.312 1126.68C515.386 1125.02 513.921 1123.59 511.915 1122.38C510.064 1121.02 507.75 1119.82 504.974 1118.76C502.351 1117.56 499.42 1116.28 496.181 1114.92L476.513 1106.78C472.656 1105.27 468.877 1103.31 465.175 1100.9C461.627 1098.49 458.387 1095.7 455.456 1092.53C452.68 1089.22 450.443 1085.45 448.746 1081.23C447.049 1076.85 446.201 1071.95 446.201 1066.53C446.201 1060.5 447.512 1054.84 450.134 1049.57C452.757 1044.14 456.459 1039.47 461.241 1035.55C466.023 1031.48 471.653 1028.31 478.132 1026.05C484.766 1023.79 492.016 1022.66 499.883 1022.66C508.676 1022.66 517.314 1024.32 525.799 1027.63C534.437 1030.95 541.996 1035.77 548.475 1042.11L531.121 1063.14C526.184 1059.37 521.248 1056.5 516.312 1054.54C511.375 1052.43 505.899 1051.38 499.883 1051.38C494.021 1051.38 489.316 1052.58 485.768 1055C482.375 1057.26 480.678 1060.5 480.678 1064.72C480.678 1066.98 481.218 1068.94 482.297 1070.6C483.531 1072.11 485.151 1073.54 487.157 1074.89C489.316 1076.1 491.784 1077.31 494.561 1078.51C497.338 1079.57 500.346 1080.77 503.585 1082.13L523.022 1089.82C532.278 1093.44 539.528 1098.41 544.773 1104.74C550.172 1111.07 552.871 1119.44 552.871 1129.84C552.871 1136.02 551.56 1141.9 548.938 1147.48C546.47 1152.91 542.767 1157.73 537.831 1161.95C533.049 1166.02 527.11 1169.34 520.014 1171.9C512.918 1174.31 504.896 1175.52 495.949 1175.52Z" fill="black"/>
<path d="M578.478 1172.81V1025.37H612.492V1172.81H578.478Z" fill="black"/>
<path d="M648.076 1172.81V1025.37H699.907C708.237 1025.37 716.027 1026.2 723.278 1027.86C730.528 1029.37 736.852 1032.01 742.252 1035.77C747.651 1039.39 751.893 1044.29 754.978 1050.47C758.217 1056.5 759.837 1063.97 759.837 1072.86C759.837 1081.45 758.217 1088.91 754.978 1095.25C751.893 1101.58 747.651 1106.78 742.252 1110.85C736.852 1114.92 730.605 1117.93 723.509 1119.89C716.413 1121.85 708.854 1122.83 700.833 1122.83H682.09V1172.81H648.076ZM682.09 1096.38H698.75C717.261 1096.38 726.517 1088.54 726.517 1072.86C726.517 1065.17 724.049 1059.74 719.113 1056.58C714.176 1053.41 707.08 1051.83 697.825 1051.83H682.09V1096.38Z" fill="black"/>
<path d="M809.794 1098.19L806.092 1111.75H838.255L834.784 1098.19C832.624 1090.8 830.542 1082.96 828.537 1074.67C826.531 1066.38 824.526 1058.39 822.52 1050.7H821.595C819.744 1058.54 817.815 1066.6 815.81 1074.89C813.959 1083.04 811.954 1090.8 809.794 1098.19ZM755.186 1172.81L802.389 1025.37H843.345L890.549 1172.81H854.452L845.197 1137.76H799.15L789.894 1172.81H755.186Z" fill="black"/>
<path d="M907.034 1172.81V1025.37H944.288L968.584 1090.95C970.126 1095.32 971.592 1099.84 972.98 1104.52C974.368 1109.04 975.834 1113.56 977.376 1118.08H978.302C979.845 1113.56 981.233 1109.04 982.467 1104.52C983.855 1099.84 985.321 1095.32 986.863 1090.95L1010.7 1025.37H1047.72V1172.81H1016.71V1118.76C1016.71 1115.14 1016.87 1111.15 1017.18 1106.78C1017.48 1102.41 1017.87 1098.03 1018.33 1093.66C1018.8 1089.14 1019.26 1084.77 1019.72 1080.55C1020.18 1076.18 1020.65 1072.18 1021.11 1068.56H1020.18L1007.92 1103.61L986.401 1159.92H967.658L946.139 1103.61L934.106 1068.56H933.181C933.644 1072.18 934.107 1076.18 934.569 1080.55C935.032 1084.77 935.495 1089.14 935.958 1093.66C936.42 1098.03 936.806 1102.41 937.114 1106.78C937.423 1111.15 937.577 1115.14 937.577 1118.76V1172.81H907.034Z" fill="black"/>
<path d="M64.2577 1278.4C61.0697 1278.4 58.1388 1277.82 55.4649 1276.67C52.7911 1275.51 50.4515 1273.85 48.4461 1271.69C46.4921 1269.48 44.9495 1266.79 43.8183 1263.63C42.7385 1260.41 42.1986 1256.79 42.1986 1252.77C42.1986 1248.8 42.7642 1245.23 43.8954 1242.07C45.0267 1238.9 46.595 1236.21 48.6004 1234C50.6057 1231.79 52.9711 1230.11 55.6963 1228.95C58.4216 1227.75 61.4039 1227.14 64.6434 1227.14C67.7286 1227.14 70.4282 1227.77 72.7421 1229.03C75.1074 1230.23 77.0356 1231.64 78.5268 1233.25L75.056 1237.32C73.719 1235.91 72.2021 1234.78 70.5053 1233.93C68.8084 1233.07 66.8802 1232.65 64.7205 1232.65C62.3038 1232.65 60.1184 1233.12 58.1645 1234.08C56.2105 1234.98 54.5394 1236.31 53.151 1238.07C51.7627 1239.78 50.6829 1241.87 49.9116 1244.33C49.1917 1246.79 48.8317 1249.56 48.8317 1252.62C48.8317 1255.74 49.1917 1258.55 49.9116 1261.06C50.6829 1263.52 51.737 1265.64 53.0739 1267.39C54.4108 1269.15 56.0305 1270.51 57.9331 1271.46C59.887 1272.42 62.0724 1272.9 64.4891 1272.9C66.9573 1272.9 69.1169 1272.42 70.9681 1271.46C72.8192 1270.46 74.5675 1269.08 76.2129 1267.32L79.7609 1271.24C77.7555 1273.5 75.493 1275.26 72.9734 1276.51C70.4539 1277.77 67.5486 1278.4 64.2577 1278.4Z" fill="black"/>
<path d="M103.771 1278.4C101.251 1278.4 98.8857 1277.97 96.6747 1277.12C94.515 1276.21 92.6125 1274.96 90.967 1273.35C89.373 1271.69 88.1132 1269.68 87.1877 1267.32C86.2621 1264.96 85.7993 1262.27 85.7993 1259.25C85.7993 1256.24 86.2621 1253.55 87.1877 1251.19C88.1646 1248.78 89.4244 1246.74 90.967 1245.08C92.5611 1243.42 94.3608 1242.17 96.3661 1241.31C98.3715 1240.41 100.454 1239.96 102.614 1239.96C104.979 1239.96 107.087 1240.36 108.938 1241.16C110.841 1241.97 112.409 1243.12 113.643 1244.63C114.929 1246.14 115.906 1247.95 116.574 1250.06C117.243 1252.17 117.577 1254.53 117.577 1257.14C117.577 1257.8 117.551 1258.45 117.5 1259.1C117.5 1259.71 117.448 1260.23 117.346 1260.69H92.0469C92.3039 1264.61 93.538 1267.72 95.7491 1270.03C98.0116 1272.29 100.943 1273.42 104.542 1273.42C106.342 1273.42 107.987 1273.17 109.478 1272.67C111.021 1272.12 112.486 1271.41 113.875 1270.56L116.111 1274.63C114.466 1275.64 112.641 1276.51 110.635 1277.27C108.63 1278.02 106.342 1278.4 103.771 1278.4ZM91.9697 1256.24H112.024C112.024 1252.52 111.201 1249.71 109.555 1247.8C107.961 1245.84 105.699 1244.86 102.768 1244.86C101.431 1244.86 100.146 1245.11 98.9114 1245.61C97.7288 1246.11 96.6489 1246.87 95.672 1247.87C94.695 1248.83 93.8723 1250.01 93.2038 1251.41C92.5868 1252.82 92.1754 1254.43 91.9697 1256.24Z" fill="black"/>
<path d="M126.84 1277.49V1240.86H132.085L132.624 1246.14H132.856C134.656 1244.38 136.532 1242.92 138.486 1241.77C140.492 1240.56 142.806 1239.96 145.428 1239.96C149.387 1239.96 152.267 1241.16 154.067 1243.58C155.918 1245.99 156.843 1249.56 156.843 1254.28V1277.49H150.519V1255.11C150.519 1251.64 149.953 1249.15 148.822 1247.65C147.691 1246.09 145.891 1245.31 143.423 1245.31C141.469 1245.31 139.746 1245.79 138.255 1246.74C136.764 1247.7 135.067 1249.1 133.164 1250.96V1277.49H126.84Z" fill="black"/>
<path d="M180.821 1278.4C178.816 1278.4 177.119 1278.1 175.731 1277.49C174.394 1276.89 173.288 1276.06 172.414 1275.01C171.591 1273.95 171 1272.67 170.64 1271.16C170.28 1269.66 170.1 1268 170.1 1266.19V1245.91H164.547V1241.24L170.409 1240.86L171.18 1230.61H176.502V1240.86H186.606V1245.91H176.502V1266.26C176.502 1268.52 176.913 1270.28 177.736 1271.54C178.61 1272.75 180.127 1273.35 182.287 1273.35C182.955 1273.35 183.675 1273.25 184.446 1273.05C185.218 1272.85 185.912 1272.62 186.529 1272.37L187.763 1277.04C186.734 1277.39 185.603 1277.7 184.369 1277.95C183.186 1278.25 182.004 1278.4 180.821 1278.4Z" fill="black"/>
<path d="M195.082 1277.49V1240.86H200.327L200.866 1247.5H201.098C202.383 1245.18 203.926 1243.35 205.726 1241.99C207.577 1240.64 209.582 1239.96 211.742 1239.96C213.233 1239.96 214.57 1240.21 215.753 1240.71L214.518 1246.14C213.901 1245.94 213.336 1245.79 212.822 1245.69C212.307 1245.59 211.665 1245.54 210.893 1245.54C209.299 1245.54 207.628 1246.16 205.88 1247.42C204.183 1248.68 202.692 1250.86 201.406 1253.98V1277.49H195.082Z" fill="black"/>
<path d="M235.646 1278.4C233.332 1278.4 231.121 1277.97 229.012 1277.12C226.956 1276.26 225.13 1275.03 223.536 1273.42C221.942 1271.77 220.657 1269.76 219.68 1267.39C218.754 1264.98 218.291 1262.27 218.291 1259.25C218.291 1256.19 218.754 1253.47 219.68 1251.11C220.657 1248.7 221.942 1246.67 223.536 1245.01C225.13 1243.35 226.956 1242.09 229.012 1241.24C231.121 1240.38 233.332 1239.96 235.646 1239.96C237.959 1239.96 240.145 1240.38 242.202 1241.24C244.31 1242.09 246.161 1243.35 247.755 1245.01C249.349 1246.67 250.609 1248.7 251.534 1251.11C252.511 1253.47 253 1256.19 253 1259.25C253 1262.27 252.511 1264.98 251.534 1267.39C250.609 1269.76 249.349 1271.77 247.755 1273.42C246.161 1275.03 244.31 1276.26 242.202 1277.12C240.145 1277.97 237.959 1278.4 235.646 1278.4ZM235.646 1273.27C237.24 1273.27 238.705 1272.95 240.042 1272.29C241.379 1271.59 242.51 1270.64 243.436 1269.43C244.413 1268.17 245.158 1266.69 245.672 1264.98C246.187 1263.27 246.444 1261.36 246.444 1259.25C246.444 1257.14 246.187 1255.23 245.672 1253.53C245.158 1251.77 244.413 1250.26 243.436 1249C242.51 1247.75 241.379 1246.79 240.042 1246.14C238.705 1245.43 237.24 1245.08 235.646 1245.08C234.051 1245.08 232.586 1245.43 231.249 1246.14C229.912 1246.79 228.755 1247.75 227.778 1249C226.853 1250.26 226.133 1251.77 225.619 1253.53C225.104 1255.23 224.847 1257.14 224.847 1259.25C224.847 1261.36 225.104 1263.27 225.619 1264.98C226.133 1266.69 226.853 1268.17 227.778 1269.43C228.755 1270.64 229.912 1271.59 231.249 1272.29C232.586 1272.95 234.051 1273.27 235.646 1273.27Z" fill="black"/>
<path d="M298.829 1278.4C295.487 1278.4 292.402 1277.82 289.574 1276.67C286.797 1275.51 284.406 1273.85 282.401 1271.69C280.395 1269.48 278.827 1266.79 277.696 1263.63C276.565 1260.41 275.999 1256.79 275.999 1252.77C275.999 1248.8 276.565 1245.23 277.696 1242.07C278.879 1238.9 280.498 1236.21 282.555 1234C284.612 1231.79 287.054 1230.11 289.882 1228.95C292.762 1227.75 295.873 1227.14 299.215 1227.14C300.963 1227.14 302.557 1227.32 303.997 1227.67C305.488 1228.02 306.825 1228.5 308.008 1229.1C309.242 1229.66 310.322 1230.31 311.247 1231.06C312.224 1231.77 313.073 1232.5 313.793 1233.25L310.245 1237.32C308.959 1236.01 307.468 1234.91 305.771 1234C304.074 1233.1 301.94 1232.65 299.369 1232.65C296.798 1232.65 294.484 1233.12 292.428 1234.08C290.371 1234.98 288.623 1236.31 287.183 1238.07C285.743 1239.78 284.612 1241.87 283.789 1244.33C283.018 1246.79 282.632 1249.56 282.632 1252.62C282.632 1255.74 282.992 1258.55 283.712 1261.06C284.483 1263.52 285.563 1265.64 286.951 1267.39C288.391 1269.15 290.139 1270.51 292.196 1271.46C294.305 1272.42 296.721 1272.9 299.446 1272.9C301.246 1272.9 302.943 1272.65 304.537 1272.14C306.183 1271.59 307.519 1270.86 308.548 1269.96V1257.07H297.827V1251.87H314.41V1272.67C312.764 1274.33 310.605 1275.71 307.931 1276.82C305.257 1277.87 302.223 1278.4 298.829 1278.4Z" fill="black"/>
<path d="M341.111 1278.4C338.592 1278.4 336.226 1277.97 334.015 1277.12C331.856 1276.21 329.953 1274.96 328.308 1273.35C326.714 1271.69 325.454 1269.68 324.528 1267.32C323.603 1264.96 323.14 1262.27 323.14 1259.25C323.14 1256.24 323.603 1253.55 324.528 1251.19C325.505 1248.78 326.765 1246.74 328.308 1245.08C329.902 1243.42 331.701 1242.17 333.707 1241.31C335.712 1240.41 337.795 1239.96 339.954 1239.96C342.32 1239.96 344.428 1240.36 346.279 1241.16C348.181 1241.97 349.75 1243.12 350.984 1244.63C352.269 1246.14 353.246 1247.95 353.915 1250.06C354.583 1252.17 354.917 1254.53 354.917 1257.14C354.917 1257.8 354.892 1258.45 354.84 1259.1C354.84 1259.71 354.789 1260.23 354.686 1260.69H329.387C329.645 1264.61 330.879 1267.72 333.09 1270.03C335.352 1272.29 338.283 1273.42 341.883 1273.42C343.682 1273.42 345.328 1273.17 346.819 1272.67C348.361 1272.12 349.827 1271.41 351.215 1270.56L353.452 1274.63C351.807 1275.64 349.981 1276.51 347.976 1277.27C345.97 1278.02 343.682 1278.4 341.111 1278.4ZM329.31 1256.24H349.364C349.364 1252.52 348.541 1249.71 346.896 1247.8C345.302 1245.84 343.039 1244.86 340.108 1244.86C338.772 1244.86 337.486 1245.11 336.252 1245.61C335.069 1246.11 333.99 1246.87 333.013 1247.87C332.036 1248.83 331.213 1250.01 330.544 1251.41C329.927 1252.82 329.516 1254.43 329.31 1256.24Z" fill="black"/>
<path d="M373.976 1278.4C371.302 1278.4 368.757 1277.92 366.34 1276.97C363.923 1276.01 361.815 1274.81 360.015 1273.35L363.178 1269.2C364.823 1270.51 366.494 1271.56 368.191 1272.37C369.939 1273.17 371.945 1273.57 374.207 1273.57C376.675 1273.57 378.526 1273.02 379.761 1271.92C380.995 1270.81 381.612 1269.45 381.612 1267.85C381.612 1266.89 381.355 1266.06 380.84 1265.36C380.326 1264.66 379.658 1264.05 378.835 1263.55C378.064 1263 377.164 1262.52 376.135 1262.12C375.107 1261.72 374.079 1261.31 373.05 1260.91C371.713 1260.46 370.376 1259.96 369.039 1259.4C367.703 1258.8 366.494 1258.1 365.414 1257.29C364.386 1256.44 363.538 1255.46 362.869 1254.35C362.201 1253.25 361.866 1251.92 361.866 1250.36C361.866 1248.9 362.149 1247.55 362.715 1246.29C363.332 1244.98 364.18 1243.88 365.26 1242.97C366.391 1242.02 367.754 1241.29 369.348 1240.79C370.942 1240.23 372.742 1239.96 374.747 1239.96C377.112 1239.96 379.272 1240.36 381.226 1241.16C383.231 1241.97 384.954 1242.95 386.394 1244.1L383.386 1248.02C382.1 1247.07 380.763 1246.29 379.375 1245.69C377.987 1245.08 376.47 1244.78 374.824 1244.78C372.459 1244.78 370.711 1245.31 369.579 1246.36C368.5 1247.42 367.96 1248.65 367.96 1250.06C367.96 1250.91 368.191 1251.67 368.654 1252.32C369.117 1252.92 369.734 1253.47 370.505 1253.98C371.276 1254.43 372.15 1254.86 373.127 1255.26C374.156 1255.61 375.21 1255.99 376.29 1256.39C377.627 1256.89 378.964 1257.42 380.3 1257.97C381.689 1258.52 382.923 1259.23 384.003 1260.08C385.083 1260.89 385.957 1261.89 386.625 1263.1C387.345 1264.3 387.705 1265.76 387.705 1267.47C387.705 1268.98 387.396 1270.38 386.779 1271.69C386.214 1273 385.34 1274.15 384.157 1275.16C383.026 1276.16 381.586 1276.94 379.838 1277.49C378.141 1278.1 376.187 1278.4 373.976 1278.4Z" fill="black"/>
<path d="M406.788 1278.4C404.783 1278.4 403.086 1278.1 401.697 1277.49C400.361 1276.89 399.255 1276.06 398.381 1275.01C397.558 1273.95 396.967 1272.67 396.607 1271.16C396.247 1269.66 396.067 1268 396.067 1266.19V1245.91H390.514V1241.24L396.375 1240.86L397.147 1230.61H402.469V1240.86H412.573V1245.91H402.469V1266.26C402.469 1268.52 402.88 1270.28 403.703 1271.54C404.577 1272.75 406.094 1273.35 408.253 1273.35C408.922 1273.35 409.642 1273.25 410.413 1273.05C411.184 1272.85 411.879 1272.62 412.496 1272.37L413.73 1277.04C412.701 1277.39 411.57 1277.7 410.336 1277.95C409.153 1278.25 407.971 1278.4 406.788 1278.4Z" fill="black"/>
<path d="M434.572 1278.4C432.258 1278.4 430.047 1277.97 427.939 1277.12C425.882 1276.26 424.056 1275.03 422.462 1273.42C420.868 1271.77 419.583 1269.76 418.606 1267.39C417.68 1264.98 417.217 1262.27 417.217 1259.25C417.217 1256.19 417.68 1253.47 418.606 1251.11C419.583 1248.7 420.868 1246.67 422.462 1245.01C424.056 1243.35 425.882 1242.09 427.939 1241.24C430.047 1240.38 432.258 1239.96 434.572 1239.96C436.886 1239.96 439.071 1240.38 441.128 1241.24C443.236 1242.09 445.087 1243.35 446.681 1245.01C448.275 1246.67 449.535 1248.7 450.46 1251.11C451.437 1253.47 451.926 1256.19 451.926 1259.25C451.926 1262.27 451.437 1264.98 450.46 1267.39C449.535 1269.76 448.275 1271.77 446.681 1273.42C445.087 1275.03 443.236 1276.26 441.128 1277.12C439.071 1277.97 436.886 1278.4 434.572 1278.4ZM434.572 1273.27C436.166 1273.27 437.631 1272.95 438.968 1272.29C440.305 1271.59 441.436 1270.64 442.362 1269.43C443.339 1268.17 444.084 1266.69 444.599 1264.98C445.113 1263.27 445.37 1261.36 445.37 1259.25C445.37 1257.14 445.113 1255.23 444.599 1253.53C444.084 1251.77 443.339 1250.26 442.362 1249C441.436 1247.75 440.305 1246.79 438.968 1246.14C437.631 1245.43 436.166 1245.08 434.572 1245.08C432.978 1245.08 431.512 1245.43 430.175 1246.14C428.838 1246.79 427.681 1247.75 426.704 1249C425.779 1250.26 425.059 1251.77 424.545 1253.53C424.031 1255.23 423.773 1257.14 423.773 1259.25C423.773 1261.36 424.031 1263.27 424.545 1264.98C425.059 1266.69 425.779 1268.17 426.704 1269.43C427.681 1270.64 428.838 1271.59 430.175 1272.29C431.512 1272.95 432.978 1273.27 434.572 1273.27Z" fill="black"/>
<path d="M461.798 1277.49V1240.86H467.043L467.583 1247.5H467.814C469.1 1245.18 470.642 1243.35 472.442 1241.99C474.293 1240.64 476.298 1239.96 478.458 1239.96C479.949 1239.96 481.286 1240.21 482.469 1240.71L481.235 1246.14C480.618 1245.94 480.052 1245.79 479.538 1245.69C479.024 1245.59 478.381 1245.54 477.61 1245.54C476.016 1245.54 474.344 1246.16 472.596 1247.42C470.899 1248.68 469.408 1250.86 468.123 1253.98V1277.49H461.798Z" fill="black"/>
<path d="M519.173 1278.4C516.654 1278.4 514.288 1277.97 512.077 1277.12C509.917 1276.21 508.015 1274.96 506.369 1273.35C504.775 1271.69 503.516 1269.68 502.59 1267.32C501.665 1264.96 501.202 1262.27 501.202 1259.25C501.202 1256.24 501.665 1253.55 502.59 1251.19C503.567 1248.78 504.827 1246.74 506.369 1245.08C507.964 1243.42 509.763 1242.17 511.769 1241.31C513.774 1240.41 515.857 1239.96 518.016 1239.96C520.381 1239.96 522.49 1240.36 524.341 1241.16C526.243 1241.97 527.812 1243.12 529.046 1244.63C530.331 1246.14 531.308 1247.95 531.977 1250.06C532.645 1252.17 532.979 1254.53 532.979 1257.14C532.979 1257.8 532.954 1258.45 532.902 1259.1C532.902 1259.71 532.851 1260.23 532.748 1260.69H507.449C507.706 1264.61 508.941 1267.72 511.152 1270.03C513.414 1272.29 516.345 1273.42 519.944 1273.42C521.744 1273.42 523.39 1273.17 524.881 1272.67C526.423 1272.12 527.889 1271.41 529.277 1270.56L531.514 1274.63C529.868 1275.64 528.043 1276.51 526.038 1277.27C524.032 1278.02 521.744 1278.4 519.173 1278.4ZM507.372 1256.24H527.426C527.426 1252.52 526.603 1249.71 524.958 1247.8C523.364 1245.84 521.101 1244.86 518.17 1244.86C516.833 1244.86 515.548 1245.11 514.314 1245.61C513.131 1246.11 512.051 1246.87 511.074 1247.87C510.097 1248.83 509.275 1250.01 508.606 1251.41C507.989 1252.82 507.578 1254.43 507.372 1256.24Z" fill="black"/>
<path d="M576.966 1278.4C573.778 1278.4 570.847 1277.8 568.173 1276.59C565.551 1275.38 563.288 1273.68 561.385 1271.46C559.483 1269.2 557.992 1266.49 556.912 1263.32C555.884 1260.11 555.369 1256.51 555.369 1252.55C555.369 1248.58 555.884 1245.03 556.912 1241.92C557.992 1238.75 559.483 1236.09 561.385 1233.93C563.288 1231.72 565.551 1230.03 568.173 1228.88C570.847 1227.72 573.778 1227.14 576.966 1227.14C580.154 1227.14 583.059 1227.75 585.681 1228.95C588.355 1230.11 590.644 1231.79 592.546 1234C594.5 1236.16 595.991 1238.83 597.02 1241.99C598.099 1245.11 598.639 1248.63 598.639 1252.55C598.639 1256.51 598.099 1260.11 597.02 1263.32C595.991 1266.49 594.5 1269.2 592.546 1271.46C590.644 1273.68 588.355 1275.38 585.681 1276.59C583.059 1277.8 580.154 1278.4 576.966 1278.4ZM576.966 1272.9C579.228 1272.9 581.259 1272.42 583.059 1271.46C584.91 1270.51 586.479 1269.15 587.764 1267.39C589.101 1265.59 590.129 1263.45 590.849 1260.99C591.569 1258.47 591.929 1255.66 591.929 1252.55C591.929 1249.48 591.569 1246.72 590.849 1244.25C590.129 1241.79 589.101 1239.71 587.764 1238C586.479 1236.29 584.91 1234.98 583.059 1234.08C581.259 1233.12 579.228 1232.65 576.966 1232.65C574.703 1232.65 572.646 1233.12 570.795 1234.08C568.996 1234.98 567.427 1236.29 566.09 1238C564.805 1239.71 563.802 1241.79 563.082 1244.25C562.363 1246.72 562.003 1249.48 562.003 1252.55C562.003 1255.66 562.363 1258.47 563.082 1260.99C563.802 1263.45 564.805 1265.59 566.09 1267.39C567.427 1269.15 568.996 1270.51 570.795 1271.46C572.646 1272.42 574.703 1272.9 576.966 1272.9Z" fill="black"/>
<path d="M608.902 1292.95V1240.86H614.147L614.687 1245.08H614.919C616.615 1243.68 618.466 1242.47 620.472 1241.46C622.529 1240.46 624.663 1239.96 626.874 1239.96C629.29 1239.96 631.424 1240.41 633.276 1241.31C635.127 1242.17 636.669 1243.42 637.903 1245.08C639.137 1246.69 640.063 1248.65 640.68 1250.96C641.348 1253.22 641.683 1255.79 641.683 1258.65C641.683 1261.77 641.246 1264.55 640.372 1267.02C639.497 1269.43 638.315 1271.49 636.823 1273.2C635.332 1274.91 633.61 1276.21 631.656 1277.12C629.702 1277.97 627.645 1278.4 625.485 1278.4C623.737 1278.4 621.989 1278.02 620.241 1277.27C618.544 1276.51 616.821 1275.48 615.073 1274.18L615.227 1280.58V1292.95H608.902ZM624.406 1273.2C625.948 1273.2 627.362 1272.87 628.648 1272.22C629.985 1271.51 631.116 1270.56 632.041 1269.35C633.018 1268.1 633.764 1266.56 634.278 1264.76C634.844 1262.95 635.127 1260.91 635.127 1258.65C635.127 1256.64 634.947 1254.81 634.587 1253.15C634.227 1251.49 633.635 1250.08 632.813 1248.93C632.041 1247.72 631.013 1246.79 629.728 1246.14C628.493 1245.49 627.002 1245.16 625.254 1245.16C623.66 1245.16 622.04 1245.59 620.395 1246.44C618.801 1247.29 617.078 1248.53 615.227 1250.13V1269.35C616.924 1270.76 618.569 1271.77 620.163 1272.37C621.757 1272.92 623.171 1273.2 624.406 1273.2Z" fill="black"/>
<path d="M666.88 1278.4C664.361 1278.4 661.995 1277.97 659.784 1277.12C657.624 1276.21 655.722 1274.96 654.077 1273.35C652.482 1271.69 651.223 1269.68 650.297 1267.32C649.372 1264.96 648.909 1262.27 648.909 1259.25C648.909 1256.24 649.372 1253.55 650.297 1251.19C651.274 1248.78 652.534 1246.74 654.077 1245.08C655.671 1243.42 657.47 1242.17 659.476 1241.31C661.481 1240.41 663.563 1239.96 665.723 1239.96C668.089 1239.96 670.197 1240.36 672.048 1241.16C673.95 1241.97 675.519 1243.12 676.753 1244.63C678.038 1246.14 679.015 1247.95 679.684 1250.06C680.352 1252.17 680.686 1254.53 680.686 1257.14C680.686 1257.8 680.661 1258.45 680.609 1259.1C680.609 1259.71 680.558 1260.23 680.455 1260.69H655.156C655.413 1264.61 656.647 1267.72 658.859 1270.03C661.121 1272.29 664.052 1273.42 667.651 1273.42C669.451 1273.42 671.097 1273.17 672.588 1272.67C674.13 1272.12 675.596 1271.41 676.984 1270.56L679.221 1274.63C677.575 1275.64 675.75 1276.51 673.745 1277.27C671.739 1278.02 669.451 1278.4 666.88 1278.4ZM655.079 1256.24H675.133C675.133 1252.52 674.31 1249.71 672.665 1247.8C671.071 1245.84 668.808 1244.86 665.877 1244.86C664.54 1244.86 663.255 1245.11 662.021 1245.61C660.838 1246.11 659.758 1246.87 658.781 1247.87C657.805 1248.83 656.982 1250.01 656.313 1251.41C655.696 1252.82 655.285 1254.43 655.079 1256.24Z" fill="black"/>
<path d="M689.949 1277.49V1240.86H695.194L695.734 1247.5H695.965C697.251 1245.18 698.794 1243.35 700.593 1241.99C702.444 1240.64 704.45 1239.96 706.609 1239.96C708.1 1239.96 709.437 1240.21 710.62 1240.71L709.386 1246.14C708.769 1245.94 708.203 1245.79 707.689 1245.69C707.175 1245.59 706.532 1245.54 705.761 1245.54C704.167 1245.54 702.496 1246.16 700.747 1247.42C699.051 1248.68 697.559 1250.86 696.274 1253.98V1277.49H689.949Z" fill="black"/>
<path d="M723.444 1278.4C720.308 1278.4 717.685 1277.49 715.577 1275.69C713.52 1273.88 712.492 1271.31 712.492 1268C712.492 1263.98 714.317 1260.91 717.968 1258.8C721.619 1256.64 727.455 1255.13 735.476 1254.28C735.476 1253.12 735.348 1251.99 735.091 1250.89C734.885 1249.78 734.499 1248.8 733.934 1247.95C733.368 1247.09 732.571 1246.41 731.543 1245.91C730.566 1245.36 729.306 1245.08 727.763 1245.08C725.604 1245.08 723.573 1245.49 721.67 1246.29C719.768 1247.09 718.071 1248 716.58 1249L714.111 1244.71C715.86 1243.6 717.994 1242.55 720.513 1241.54C723.033 1240.49 725.809 1239.96 728.843 1239.96C733.42 1239.96 736.736 1241.34 738.793 1244.1C740.85 1246.82 741.878 1250.46 741.878 1255.03V1277.49H736.633L736.094 1273.12H735.862C734.062 1274.58 732.134 1275.84 730.077 1276.89C728.021 1277.9 725.809 1278.4 723.444 1278.4ZM725.295 1273.42C727.095 1273.42 728.792 1273.02 730.386 1272.22C731.98 1271.36 733.677 1270.13 735.476 1268.52V1258.35C732.34 1258.75 729.692 1259.23 727.532 1259.78C725.424 1260.33 723.701 1260.99 722.364 1261.74C721.079 1262.49 720.128 1263.37 719.511 1264.38C718.945 1265.33 718.662 1266.39 718.662 1267.54C718.662 1269.66 719.305 1271.16 720.59 1272.07C721.876 1272.97 723.444 1273.42 725.295 1273.42Z" fill="black"/>
<path d="M768.481 1278.4C766.013 1278.4 763.699 1277.97 761.539 1277.12C759.38 1276.26 757.503 1275.03 755.909 1273.42C754.366 1271.77 753.132 1269.76 752.206 1267.39C751.332 1264.98 750.895 1262.27 750.895 1259.25C750.895 1256.19 751.384 1253.47 752.361 1251.11C753.338 1248.7 754.649 1246.67 756.294 1245.01C757.94 1243.35 759.842 1242.09 762.002 1241.24C764.213 1240.38 766.527 1239.96 768.944 1239.96C771.412 1239.96 773.52 1240.38 775.268 1241.24C777.017 1242.09 778.559 1243.1 779.896 1244.25L776.657 1248.32C775.577 1247.37 774.42 1246.59 773.186 1245.99C772.003 1245.38 770.666 1245.08 769.175 1245.08C767.478 1245.08 765.91 1245.43 764.47 1246.14C763.03 1246.79 761.796 1247.75 760.768 1249C759.739 1250.26 758.917 1251.77 758.3 1253.53C757.734 1255.23 757.451 1257.14 757.451 1259.25C757.451 1261.36 757.734 1263.27 758.3 1264.98C758.865 1266.69 759.637 1268.17 760.614 1269.43C761.642 1270.64 762.876 1271.59 764.316 1272.29C765.756 1272.95 767.324 1273.27 769.021 1273.27C770.769 1273.27 772.363 1272.92 773.803 1272.22C775.294 1271.46 776.631 1270.58 777.814 1269.58L780.59 1273.73C778.893 1275.18 777.017 1276.34 774.96 1277.19C772.903 1278 770.743 1278.4 768.481 1278.4Z" fill="black"/>
<path d="M788.847 1277.49V1240.86H795.172V1277.49H788.847ZM792.087 1233.32C790.853 1233.32 789.799 1232.95 788.925 1232.19C788.102 1231.44 787.69 1230.49 787.69 1229.33C787.69 1228.12 788.102 1227.17 788.925 1226.47C789.799 1225.71 790.853 1225.33 792.087 1225.33C793.321 1225.33 794.349 1225.71 795.172 1226.47C796.046 1227.17 796.483 1228.12 796.483 1229.33C796.483 1230.49 796.046 1231.44 795.172 1232.19C794.349 1232.95 793.321 1233.32 792.087 1233.32Z" fill="black"/>
<path d="M822.406 1278.4C820.092 1278.4 817.881 1277.97 815.773 1277.12C813.716 1276.26 811.891 1275.03 810.297 1273.42C808.703 1271.77 807.417 1269.76 806.44 1267.39C805.515 1264.98 805.052 1262.27 805.052 1259.25C805.052 1256.19 805.515 1253.47 806.44 1251.11C807.417 1248.7 808.703 1246.67 810.297 1245.01C811.891 1243.35 813.716 1242.09 815.773 1241.24C817.881 1240.38 820.092 1239.96 822.406 1239.96C824.72 1239.96 826.905 1240.38 828.962 1241.24C831.07 1242.09 832.922 1243.35 834.516 1245.01C836.11 1246.67 837.369 1248.7 838.295 1251.11C839.272 1253.47 839.76 1256.19 839.76 1259.25C839.76 1262.27 839.272 1264.98 838.295 1267.39C837.369 1269.76 836.11 1271.77 834.516 1273.42C832.922 1275.03 831.07 1276.26 828.962 1277.12C826.905 1277.97 824.72 1278.4 822.406 1278.4ZM822.406 1273.27C824 1273.27 825.466 1272.95 826.803 1272.29C828.14 1271.59 829.271 1270.64 830.196 1269.43C831.173 1268.17 831.919 1266.69 832.433 1264.98C832.947 1263.27 833.204 1261.36 833.204 1259.25C833.204 1257.14 832.947 1255.23 832.433 1253.53C831.919 1251.77 831.173 1250.26 830.196 1249C829.271 1247.75 828.14 1246.79 826.803 1246.14C825.466 1245.43 824 1245.08 822.406 1245.08C820.812 1245.08 819.347 1245.43 818.01 1246.14C816.673 1246.79 815.516 1247.75 814.539 1249C813.613 1250.26 812.893 1251.77 812.379 1253.53C811.865 1255.23 811.608 1257.14 811.608 1259.25C811.608 1261.36 811.865 1263.27 812.379 1264.98C812.893 1266.69 813.613 1268.17 814.539 1269.43C815.516 1270.64 816.673 1271.59 818.01 1272.29C819.347 1272.95 820.812 1273.27 822.406 1273.27Z" fill="black"/>
<path d="M849.632 1277.49V1240.86H854.877L855.417 1246.14H855.649C857.448 1244.38 859.325 1242.92 861.279 1241.77C863.284 1240.56 865.598 1239.96 868.221 1239.96C872.18 1239.96 875.06 1241.16 876.859 1243.58C878.711 1245.99 879.636 1249.56 879.636 1254.28V1277.49H873.311V1255.11C873.311 1251.64 872.746 1249.15 871.615 1247.65C870.483 1246.09 868.684 1245.31 866.215 1245.31C864.261 1245.31 862.539 1245.79 861.048 1246.74C859.557 1247.7 857.86 1249.1 855.957 1250.96V1277.49H849.632Z" fill="black"/>
<path d="M900.452 1278.4C897.315 1278.4 894.693 1277.49 892.584 1275.69C890.528 1273.88 889.499 1271.31 889.499 1268C889.499 1263.98 891.325 1260.91 894.975 1258.8C898.626 1256.64 904.462 1255.13 912.484 1254.28C912.484 1253.12 912.355 1251.99 912.098 1250.89C911.893 1249.78 911.507 1248.8 910.941 1247.95C910.376 1247.09 909.579 1246.41 908.55 1245.91C907.573 1245.36 906.313 1245.08 904.771 1245.08C902.611 1245.08 900.58 1245.49 898.678 1246.29C896.775 1247.09 895.078 1248 893.587 1249L891.119 1244.71C892.867 1243.6 895.001 1242.55 897.521 1241.54C900.04 1240.49 902.817 1239.96 905.851 1239.96C910.427 1239.96 913.744 1241.34 915.8 1244.1C917.857 1246.82 918.886 1250.46 918.886 1255.03V1277.49H913.641L913.101 1273.12H912.869C911.07 1274.58 909.141 1275.84 907.085 1276.89C905.028 1277.9 902.817 1278.4 900.452 1278.4ZM902.303 1273.42C904.102 1273.42 905.799 1273.02 907.393 1272.22C908.987 1271.36 910.684 1270.13 912.484 1268.52V1258.35C909.347 1258.75 906.699 1259.23 904.539 1259.78C902.431 1260.33 900.709 1260.99 899.372 1261.74C898.086 1262.49 897.135 1263.37 896.518 1264.38C895.952 1265.33 895.67 1266.39 895.67 1267.54C895.67 1269.66 896.312 1271.16 897.598 1272.07C898.883 1272.97 900.451 1273.42 902.303 1273.42Z" fill="black"/>
<path d="M937.39 1278.4C934.973 1278.4 933.25 1277.7 932.222 1276.29C931.194 1274.88 930.679 1272.82 930.679 1270.11V1223.83H937.004V1270.56C937.004 1271.56 937.184 1272.27 937.544 1272.67C937.904 1273.07 938.315 1273.27 938.778 1273.27C938.984 1273.27 939.164 1273.27 939.318 1273.27C939.524 1273.27 939.806 1273.22 940.166 1273.12L941.015 1277.8C940.603 1278 940.115 1278.15 939.549 1278.25C938.984 1278.35 938.264 1278.4 937.39 1278.4Z" fill="black"/>
<path d="M978.583 1278.4C973.852 1278.4 970.073 1276.74 967.245 1273.42C964.468 1270.11 963.08 1265.38 963.08 1259.25C963.08 1256.29 963.517 1253.63 964.391 1251.26C965.317 1248.85 966.525 1246.82 968.016 1245.16C969.507 1243.5 971.23 1242.22 973.184 1241.31C975.138 1240.41 977.195 1239.96 979.354 1239.96C981.514 1239.96 983.391 1240.33 984.985 1241.09C986.579 1241.84 988.199 1242.87 989.844 1244.18L989.536 1237.92V1223.83H995.937V1277.49H990.692L990.153 1273.2H989.921C988.43 1274.6 986.707 1275.84 984.753 1276.89C982.851 1277.9 980.794 1278.4 978.583 1278.4ZM979.971 1273.2C981.72 1273.2 983.365 1272.8 984.908 1271.99C986.45 1271.14 987.993 1269.86 989.536 1268.15V1249C987.942 1247.6 986.399 1246.62 984.908 1246.06C983.468 1245.46 981.977 1245.16 980.434 1245.16C978.943 1245.16 977.529 1245.51 976.192 1246.21C974.907 1246.87 973.775 1247.82 972.798 1249.08C971.821 1250.28 971.05 1251.74 970.484 1253.45C969.919 1255.16 969.636 1257.07 969.636 1259.18C969.636 1263.6 970.536 1267.04 972.336 1269.5C974.135 1271.97 976.68 1273.2 979.971 1273.2Z" fill="black"/>
<path d="M1023.14 1278.4C1020.83 1278.4 1018.62 1277.97 1016.51 1277.12C1014.45 1276.26 1012.62 1275.03 1011.03 1273.42C1009.44 1271.77 1008.15 1269.76 1007.17 1267.39C1006.25 1264.98 1005.79 1262.27 1005.79 1259.25C1005.79 1256.19 1006.25 1253.47 1007.17 1251.11C1008.15 1248.7 1009.44 1246.67 1011.03 1245.01C1012.62 1243.35 1014.45 1242.09 1016.51 1241.24C1018.62 1240.38 1020.83 1239.96 1023.14 1239.96C1025.45 1239.96 1027.64 1240.38 1029.7 1241.24C1031.8 1242.09 1033.66 1243.35 1035.25 1245.01C1036.84 1246.67 1038.1 1248.7 1039.03 1251.11C1040.01 1253.47 1040.49 1256.19 1040.49 1259.25C1040.49 1262.27 1040.01 1264.98 1039.03 1267.39C1038.1 1269.76 1036.84 1271.77 1035.25 1273.42C1033.66 1275.03 1031.8 1276.26 1029.7 1277.12C1027.64 1277.97 1025.45 1278.4 1023.14 1278.4ZM1023.14 1273.27C1024.73 1273.27 1026.2 1272.95 1027.54 1272.29C1028.87 1271.59 1030 1270.64 1030.93 1269.43C1031.91 1268.17 1032.65 1266.69 1033.17 1264.98C1033.68 1263.27 1033.94 1261.36 1033.94 1259.25C1033.94 1257.14 1033.68 1255.23 1033.17 1253.53C1032.65 1251.77 1031.91 1250.26 1030.93 1249C1030 1247.75 1028.87 1246.79 1027.54 1246.14C1026.2 1245.43 1024.73 1245.08 1023.14 1245.08C1021.55 1245.08 1020.08 1245.43 1018.74 1246.14C1017.41 1246.79 1016.25 1247.75 1015.27 1249C1014.35 1250.26 1013.63 1251.77 1013.11 1253.53C1012.6 1255.23 1012.34 1257.14 1012.34 1259.25C1012.34 1261.36 1012.6 1263.27 1013.11 1264.98C1013.63 1266.69 1014.35 1268.17 1015.27 1269.43C1016.25 1270.64 1017.41 1271.59 1018.74 1272.29C1020.08 1272.95 1021.55 1273.27 1023.14 1273.27Z" fill="black"/>
<path d="M17.7399 1374.71C14.1919 1374.71 10.901 1374.06 7.86726 1372.75C4.83348 1371.45 2.21106 1369.66 0 1367.4L3.8565 1363.03C5.6562 1364.89 7.76442 1366.39 10.1812 1367.55C12.6493 1368.66 15.1946 1369.21 17.817 1369.21C21.1593 1369.21 23.7561 1368.48 25.6072 1367.02C27.4583 1365.52 28.3839 1363.56 28.3839 1361.14C28.3839 1359.89 28.1525 1358.83 27.6897 1357.98C27.2783 1357.07 26.687 1356.32 25.9157 1355.72C25.1958 1355.06 24.3217 1354.49 23.2933 1353.98C22.2649 1353.48 21.1593 1352.95 19.9767 1352.4L12.7265 1349.31C11.5438 1348.81 10.3354 1348.2 9.10134 1347.5C7.86726 1346.8 6.76173 1345.94 5.78475 1344.94C4.80777 1343.93 4.01076 1342.75 3.39372 1341.4C2.77668 1339.99 2.46816 1338.38 2.46816 1336.57C2.46816 1334.71 2.85381 1332.98 3.62511 1331.37C4.44783 1329.76 5.55336 1328.38 6.9417 1327.23C8.38146 1326.02 10.0526 1325.09 11.9552 1324.44C13.9091 1323.78 16.043 1323.46 18.3569 1323.46C21.3907 1323.46 24.1931 1324.03 26.7641 1325.19C29.3351 1326.3 31.5205 1327.75 33.3202 1329.56L29.8493 1333.63C28.3067 1332.17 26.5842 1331.04 24.6816 1330.24C22.8305 1329.39 20.7223 1328.96 18.3569 1328.96C15.5288 1328.96 13.2407 1329.61 11.4924 1330.92C9.79551 1332.17 8.94708 1333.93 8.94708 1336.19C8.94708 1337.4 9.17847 1338.43 9.64126 1339.29C10.1555 1340.09 10.8239 1340.82 11.6466 1341.47C12.4694 1342.07 13.3692 1342.63 14.3462 1343.13C15.3232 1343.58 16.3259 1344.01 17.3543 1344.41L24.5274 1347.43C25.9671 1348.03 27.3297 1348.73 28.6152 1349.54C29.9007 1350.29 31.0063 1351.19 31.9318 1352.25C32.8574 1353.25 33.5773 1354.46 34.0915 1355.87C34.6571 1357.22 34.9399 1358.81 34.9399 1360.62C34.9399 1362.58 34.5285 1364.41 33.7058 1366.12C32.9345 1367.83 31.8033 1369.33 30.3121 1370.64C28.8209 1371.9 27.0212 1372.9 24.913 1373.66C22.8048 1374.36 20.4137 1374.71 17.7399 1374.71Z" fill="black"/>
<path d="M44.2865 1373.81V1337.17H50.6112V1373.81H44.2865ZM47.526 1329.64C46.2919 1329.64 45.2378 1329.26 44.3636 1328.51C43.5409 1327.75 43.1295 1326.8 43.1295 1325.64C43.1295 1324.44 43.5409 1323.48 44.3636 1322.78C45.2378 1322.02 46.2919 1321.65 47.526 1321.65C48.76 1321.65 49.7884 1322.02 50.6112 1322.78C51.4853 1323.48 51.9224 1324.44 51.9224 1325.64C51.9224 1326.8 51.4853 1327.75 50.6112 1328.51C49.7884 1329.26 48.76 1329.64 47.526 1329.64Z" fill="black"/>
<path d="M73.0632 1374.71C70.3894 1374.71 67.8441 1374.23 65.4274 1373.28C63.0106 1372.32 60.9024 1371.12 59.1027 1369.66L62.265 1365.52C63.9105 1366.82 65.5816 1367.88 67.2785 1368.68C69.0268 1369.49 71.0321 1369.89 73.2946 1369.89C75.7628 1369.89 77.6139 1369.33 78.848 1368.23C80.0821 1367.12 80.6991 1365.77 80.6991 1364.16C80.6991 1363.2 80.442 1362.37 79.9278 1361.67C79.4136 1360.97 78.7451 1360.36 77.9224 1359.86C77.1511 1359.31 76.2513 1358.83 75.2229 1358.43C74.1945 1358.03 73.1661 1357.63 72.1377 1357.22C70.8007 1356.77 69.4638 1356.27 68.1269 1355.72C66.79 1355.11 65.5816 1354.41 64.5018 1353.61C63.4734 1352.75 62.625 1351.77 61.9565 1350.67C61.288 1349.56 60.9538 1348.23 60.9538 1346.67C60.9538 1345.21 61.2366 1343.86 61.8022 1342.6C62.4193 1341.3 63.2677 1340.19 64.3475 1339.29C65.4788 1338.33 66.8414 1337.6 68.4354 1337.1C70.0294 1336.55 71.8291 1336.27 73.8345 1336.27C76.1998 1336.27 78.3595 1336.67 80.3135 1337.48C82.3188 1338.28 84.0414 1339.26 85.4812 1340.42L82.4731 1344.34C81.1876 1343.38 79.8507 1342.6 78.4623 1342C77.074 1341.4 75.5571 1341.09 73.9117 1341.09C71.5463 1341.09 69.7981 1341.62 68.6668 1342.68C67.587 1343.73 67.0471 1344.96 67.0471 1346.37C67.0471 1347.22 67.2785 1347.98 67.7413 1348.63C68.204 1349.23 68.8211 1349.79 69.5924 1350.29C70.3637 1350.74 71.2378 1351.17 72.2148 1351.57C73.2432 1351.92 74.2973 1352.3 75.3771 1352.7C76.7141 1353.2 78.051 1353.73 79.3879 1354.28C80.7762 1354.84 82.0103 1355.54 83.0901 1356.4C84.17 1357.2 85.0441 1358.2 85.7126 1359.41C86.4324 1360.62 86.7924 1362.07 86.7924 1363.78C86.7924 1365.29 86.4838 1366.7 85.8668 1368C85.3012 1369.31 84.4271 1370.47 83.2444 1371.47C82.1132 1372.48 80.6734 1373.25 78.9251 1373.81C77.2283 1374.41 75.2743 1374.71 73.0632 1374.71Z" fill="black"/>
<path d="M105.875 1374.71C103.87 1374.71 102.173 1374.41 100.785 1373.81C99.4479 1373.2 98.3424 1372.37 97.4683 1371.32C96.6455 1370.26 96.0542 1368.98 95.6943 1367.48C95.3343 1365.97 95.1544 1364.31 95.1544 1362.5V1342.22H89.601V1337.55L95.4629 1337.17L96.2342 1326.92H101.556V1337.17H111.66V1342.22H101.556V1362.58C101.556 1364.84 101.968 1366.6 102.79 1367.85C103.664 1369.06 105.181 1369.66 107.341 1369.66C108.009 1369.66 108.729 1369.56 109.501 1369.36C110.272 1369.16 110.966 1368.93 111.583 1368.68L112.817 1373.35C111.789 1373.71 110.657 1374.01 109.423 1374.26C108.241 1374.56 107.058 1374.71 105.875 1374.71Z" fill="black"/>
<path d="M134.276 1374.71C131.757 1374.71 129.391 1374.28 127.18 1373.43C125.021 1372.53 123.118 1371.27 121.473 1369.66C119.879 1368 118.619 1365.99 117.693 1363.63C116.768 1361.27 116.305 1358.58 116.305 1355.57C116.305 1352.55 116.768 1349.86 117.693 1347.5C118.67 1345.09 119.93 1343.05 121.473 1341.4C123.067 1339.74 124.866 1338.48 126.872 1337.63C128.877 1336.72 130.96 1336.27 133.119 1336.27C135.485 1336.27 137.593 1336.67 139.444 1337.48C141.346 1338.28 142.915 1339.44 144.149 1340.94C145.434 1342.45 146.411 1344.26 147.08 1346.37C147.748 1348.48 148.082 1350.84 148.082 1353.46C148.082 1354.11 148.057 1354.76 148.005 1355.42C148.005 1356.02 147.954 1356.55 147.851 1357H122.552C122.809 1360.92 124.044 1364.03 126.255 1366.34C128.517 1368.61 131.448 1369.74 135.047 1369.74C136.847 1369.74 138.493 1369.49 139.984 1368.98C141.526 1368.43 142.992 1367.73 144.38 1366.87L146.617 1370.94C144.972 1371.95 143.146 1372.83 141.141 1373.58C139.135 1374.33 136.847 1374.71 134.276 1374.71ZM122.475 1352.55H142.529C142.529 1348.83 141.706 1346.02 140.061 1344.11C138.467 1342.15 136.204 1341.17 133.273 1341.17C131.937 1341.17 130.651 1341.42 129.417 1341.92C128.234 1342.43 127.154 1343.18 126.177 1344.18C125.201 1345.14 124.378 1346.32 123.709 1347.73C123.092 1349.13 122.681 1350.74 122.475 1352.55Z" fill="black"/>
<path d="M157.345 1373.81V1337.17H162.59L163.13 1342.45H163.361C165.007 1340.69 166.781 1339.23 168.683 1338.08C170.637 1336.87 172.746 1336.27 175.008 1336.27C177.888 1336.27 180.124 1336.9 181.718 1338.15C183.364 1339.36 184.572 1341.07 185.343 1343.28C187.297 1341.17 189.251 1339.49 191.205 1338.23C193.211 1336.92 195.37 1336.27 197.684 1336.27C201.541 1336.27 204.395 1337.48 206.246 1339.89C208.148 1342.3 209.1 1345.87 209.1 1350.59V1373.81H202.775V1351.42C202.775 1347.95 202.209 1345.47 201.078 1343.96C199.947 1342.4 198.198 1341.62 195.833 1341.62C193.005 1341.62 189.868 1343.51 186.423 1347.27V1373.81H180.099V1351.42C180.099 1347.95 179.533 1345.47 178.402 1343.96C177.271 1342.4 175.497 1341.62 173.08 1341.62C170.252 1341.62 167.115 1343.51 163.67 1347.27V1373.81H157.345Z" fill="black"/>
<path d="M229.932 1374.71C226.796 1374.71 224.173 1373.81 222.065 1372C220.008 1370.19 218.98 1367.63 218.98 1364.31C218.98 1360.29 220.805 1357.22 224.456 1355.11C228.107 1352.95 233.943 1351.45 241.965 1350.59C241.965 1349.44 241.836 1348.3 241.579 1347.2C241.373 1346.09 240.988 1345.11 240.422 1344.26C239.857 1343.41 239.059 1342.73 238.031 1342.22C237.054 1341.67 235.794 1341.4 234.252 1341.4C232.092 1341.4 230.061 1341.8 228.158 1342.6C226.256 1343.41 224.559 1344.31 223.068 1345.32L220.6 1341.02C222.348 1339.91 224.482 1338.86 227.002 1337.85C229.521 1336.8 232.298 1336.27 235.332 1336.27C239.908 1336.27 243.225 1337.65 245.281 1340.42C247.338 1343.13 248.367 1346.77 248.367 1351.35V1373.81H243.122L242.582 1369.44H242.35C240.551 1370.89 238.622 1372.15 236.566 1373.2C234.509 1374.21 232.298 1374.71 229.932 1374.71ZM231.784 1369.74C233.583 1369.74 235.28 1369.33 236.874 1368.53C238.468 1367.68 240.165 1366.45 241.965 1364.84V1354.66C238.828 1355.06 236.18 1355.54 234.02 1356.09C231.912 1356.65 230.19 1357.3 228.853 1358.05C227.567 1358.81 226.616 1359.69 225.999 1360.69C225.433 1361.65 225.15 1362.7 225.15 1363.86C225.15 1365.97 225.793 1367.48 227.079 1368.38C228.364 1369.28 229.932 1369.74 231.784 1369.74Z" fill="black"/>
<path d="M288.405 1374.71C283.674 1374.71 279.895 1373.05 277.067 1369.74C274.29 1366.42 272.902 1361.7 272.902 1355.57C272.902 1352.6 273.339 1349.94 274.213 1347.58C275.138 1345.16 276.347 1343.13 277.838 1341.47C279.329 1339.81 281.052 1338.53 283.006 1337.63C284.96 1336.72 287.017 1336.27 289.176 1336.27C291.336 1336.27 293.213 1336.65 294.807 1337.4C296.401 1338.15 298.02 1339.18 299.666 1340.49L299.357 1334.23V1320.14H305.759V1373.81H300.514L299.974 1369.51H299.743C298.252 1370.92 296.529 1372.15 294.575 1373.2C292.673 1374.21 290.616 1374.71 288.405 1374.71ZM289.793 1369.51C291.542 1369.51 293.187 1369.11 294.73 1368.3C296.272 1367.45 297.815 1366.17 299.357 1364.46V1345.32C297.763 1343.91 296.221 1342.93 294.73 1342.38C293.29 1341.77 291.799 1341.47 290.256 1341.47C288.765 1341.47 287.351 1341.82 286.014 1342.53C284.728 1343.18 283.597 1344.13 282.62 1345.39C281.643 1346.6 280.872 1348.05 280.306 1349.76C279.741 1351.47 279.458 1353.38 279.458 1355.49C279.458 1359.91 280.358 1363.35 282.157 1365.82C283.957 1368.28 286.502 1369.51 289.793 1369.51Z" fill="black"/>
<path d="M333.579 1374.71C331.059 1374.71 328.694 1374.28 326.483 1373.43C324.323 1372.53 322.421 1371.27 320.775 1369.66C319.181 1368 317.922 1365.99 316.996 1363.63C316.07 1361.27 315.608 1358.58 315.608 1355.57C315.608 1352.55 316.07 1349.86 316.996 1347.5C317.973 1345.09 319.233 1343.05 320.775 1341.4C322.369 1339.74 324.169 1338.48 326.174 1337.63C328.18 1336.72 330.262 1336.27 332.422 1336.27C334.787 1336.27 336.896 1336.67 338.747 1337.48C340.649 1338.28 342.218 1339.44 343.452 1340.94C344.737 1342.45 345.714 1344.26 346.383 1346.37C347.051 1348.48 347.385 1350.84 347.385 1353.46C347.385 1354.11 347.36 1354.76 347.308 1355.42C347.308 1356.02 347.257 1356.55 347.154 1357H321.855C322.112 1360.92 323.346 1364.03 325.557 1366.34C327.82 1368.61 330.751 1369.74 334.35 1369.74C336.15 1369.74 337.795 1369.49 339.287 1368.98C340.829 1368.43 342.295 1367.73 343.683 1366.87L345.92 1370.94C344.274 1371.95 342.449 1372.83 340.444 1373.58C338.438 1374.33 336.15 1374.71 333.579 1374.71ZM321.778 1352.55H341.832C341.832 1348.83 341.009 1346.02 339.364 1344.11C337.77 1342.15 335.507 1341.17 332.576 1341.17C331.239 1341.17 329.954 1341.42 328.72 1341.92C327.537 1342.43 326.457 1343.18 325.48 1344.18C324.503 1345.14 323.681 1346.32 323.012 1347.73C322.395 1349.13 321.984 1350.74 321.778 1352.55Z" fill="black"/>
<path d="M372.706 1373.81V1324.36H387.13C389.958 1324.36 392.529 1324.61 394.843 1325.11C397.208 1325.62 399.213 1326.45 400.859 1327.6C402.504 1328.71 403.79 1330.19 404.715 1332.05C405.641 1333.91 406.103 1336.19 406.103 1338.91C406.103 1341.52 405.641 1343.78 404.715 1345.69C403.841 1347.6 402.581 1349.18 400.936 1350.44C399.29 1351.7 397.311 1352.65 394.997 1353.3C392.734 1353.91 390.215 1354.21 387.438 1354.21H379.108V1373.81H372.706ZM379.108 1349.08H386.667C391.089 1349.08 394.354 1348.28 396.462 1346.67C398.622 1345.01 399.702 1342.43 399.702 1338.91C399.702 1335.34 398.57 1332.88 396.308 1331.52C394.097 1330.11 390.78 1329.41 386.358 1329.41H379.108V1349.08Z" fill="black"/>
<path d="M415.776 1373.81V1337.17H421.021L421.561 1343.81H421.792C423.078 1341.5 424.62 1339.66 426.42 1338.31C428.271 1336.95 430.277 1336.27 432.436 1336.27C433.927 1336.27 435.264 1336.52 436.447 1337.02L435.213 1342.45C434.596 1342.25 434.03 1342.1 433.516 1342C433.002 1341.9 432.359 1341.85 431.588 1341.85C429.994 1341.85 428.323 1342.48 426.574 1343.73C424.877 1344.99 423.386 1347.17 422.101 1350.29V1373.81H415.776Z" fill="black"/>
<path d="M456.34 1374.71C454.026 1374.71 451.815 1374.28 449.707 1373.43C447.65 1372.58 445.824 1371.34 444.23 1369.74C442.636 1368.08 441.351 1366.07 440.374 1363.71C439.448 1361.29 438.986 1358.58 438.986 1355.57C438.986 1352.5 439.448 1349.79 440.374 1347.43C441.351 1345.01 442.636 1342.98 444.23 1341.32C445.824 1339.66 447.65 1338.41 449.707 1337.55C451.815 1336.7 454.026 1336.27 456.34 1336.27C458.654 1336.27 460.839 1336.7 462.896 1337.55C465.004 1338.41 466.855 1339.66 468.449 1341.32C470.043 1342.98 471.303 1345.01 472.229 1347.43C473.206 1349.79 473.694 1352.5 473.694 1355.57C473.694 1358.58 473.206 1361.29 472.229 1363.71C471.303 1366.07 470.043 1368.08 468.449 1369.74C466.855 1371.34 465.004 1372.58 462.896 1373.43C460.839 1374.28 458.654 1374.71 456.34 1374.71ZM456.34 1369.59C457.934 1369.59 459.399 1369.26 460.736 1368.61C462.073 1367.9 463.204 1366.95 464.13 1365.74C465.107 1364.49 465.853 1363 466.367 1361.29C466.881 1359.59 467.138 1357.68 467.138 1355.57C467.138 1353.46 466.881 1351.55 466.367 1349.84C465.853 1348.08 465.107 1346.57 464.13 1345.32C463.204 1344.06 462.073 1343.1 460.736 1342.45C459.399 1341.75 457.934 1341.4 456.34 1341.4C454.746 1341.4 453.28 1341.75 451.943 1342.45C450.607 1343.1 449.45 1344.06 448.473 1345.32C447.547 1346.57 446.827 1348.08 446.313 1349.84C445.799 1351.55 445.542 1353.46 445.542 1355.57C445.542 1357.68 445.799 1359.59 446.313 1361.29C446.827 1363 447.547 1364.49 448.473 1365.74C449.45 1366.95 450.607 1367.9 451.943 1368.61C453.28 1369.26 454.746 1369.59 456.34 1369.59Z" fill="black"/>
<path d="M494.087 1374.71C492.081 1374.71 490.384 1374.41 488.996 1373.81C487.659 1373.2 486.553 1372.37 485.679 1371.32C484.857 1370.26 484.265 1368.98 483.905 1367.48C483.545 1365.97 483.365 1364.31 483.365 1362.5V1342.22H477.812V1337.55L483.674 1337.17L484.445 1326.92H489.767V1337.17H499.871V1342.22H489.767V1362.58C489.767 1364.84 490.179 1366.6 491.001 1367.85C491.875 1369.06 493.392 1369.66 495.552 1369.66C496.22 1369.66 496.94 1369.56 497.712 1369.36C498.483 1369.16 499.177 1368.93 499.794 1368.68L501.028 1373.35C500 1373.71 498.869 1374.01 497.635 1374.26C496.452 1374.56 495.269 1374.71 494.087 1374.71Z" fill="black"/>
<path d="M522.487 1374.71C519.968 1374.71 517.602 1374.28 515.391 1373.43C513.232 1372.53 511.329 1371.27 509.684 1369.66C508.09 1368 506.83 1365.99 505.904 1363.63C504.979 1361.27 504.516 1358.58 504.516 1355.57C504.516 1352.55 504.979 1349.86 505.904 1347.5C506.881 1345.09 508.141 1343.05 509.684 1341.4C511.278 1339.74 513.077 1338.48 515.083 1337.63C517.088 1336.72 519.171 1336.27 521.33 1336.27C523.696 1336.27 525.804 1336.67 527.655 1337.48C529.557 1338.28 531.126 1339.44 532.36 1340.94C533.645 1342.45 534.622 1344.26 535.291 1346.37C535.959 1348.48 536.294 1350.84 536.294 1353.46C536.294 1354.11 536.268 1354.76 536.216 1355.42C536.216 1356.02 536.165 1356.55 536.062 1357H510.764C511.021 1360.92 512.255 1364.03 514.466 1366.34C516.728 1368.61 519.659 1369.74 523.259 1369.74C525.058 1369.74 526.704 1369.49 528.195 1368.98C529.738 1368.43 531.203 1367.73 532.591 1366.87L534.828 1370.94C533.183 1371.95 531.357 1372.83 529.352 1373.58C527.346 1374.33 525.058 1374.71 522.487 1374.71ZM510.686 1352.55H530.74C530.74 1348.83 529.917 1346.02 528.272 1344.11C526.678 1342.15 524.416 1341.17 521.485 1341.17C520.148 1341.17 518.862 1341.42 517.628 1341.92C516.445 1342.43 515.366 1343.18 514.389 1344.18C513.412 1345.14 512.589 1346.32 511.92 1347.73C511.303 1349.13 510.892 1350.74 510.686 1352.55Z" fill="black"/>
<path d="M560.365 1374.71C557.897 1374.71 555.583 1374.28 553.424 1373.43C551.264 1372.58 549.387 1371.34 547.793 1369.74C546.251 1368.08 545.016 1366.07 544.091 1363.71C543.217 1361.29 542.78 1358.58 542.78 1355.57C542.78 1352.5 543.268 1349.79 544.245 1347.43C545.222 1345.01 546.533 1342.98 548.179 1341.32C549.824 1339.66 551.727 1338.41 553.886 1337.55C556.097 1336.7 558.411 1336.27 560.828 1336.27C563.296 1336.27 565.405 1336.7 567.153 1337.55C568.901 1338.41 570.444 1339.41 571.781 1340.57L568.541 1344.64C567.461 1343.68 566.304 1342.9 565.07 1342.3C563.888 1341.7 562.551 1341.4 561.06 1341.4C559.363 1341.4 557.794 1341.75 556.355 1342.45C554.915 1343.1 553.681 1344.06 552.652 1345.32C551.624 1346.57 550.801 1348.08 550.184 1349.84C549.619 1351.55 549.336 1353.46 549.336 1355.57C549.336 1357.68 549.619 1359.59 550.184 1361.29C550.75 1363 551.521 1364.49 552.498 1365.74C553.526 1366.95 554.761 1367.9 556.2 1368.61C557.64 1369.26 559.208 1369.59 560.905 1369.59C562.654 1369.59 564.247 1369.23 565.687 1368.53C567.178 1367.78 568.515 1366.9 569.698 1365.89L572.475 1370.04C570.778 1371.5 568.901 1372.65 566.844 1373.51C564.787 1374.31 562.628 1374.71 560.365 1374.71ZM553.501 1390.84L552.884 1387.83C556.123 1387.58 558.334 1387.15 559.517 1386.55C560.7 1385.99 561.291 1385.16 561.291 1384.06C561.291 1383.05 560.854 1382.27 559.98 1381.72C559.106 1381.17 557.563 1380.74 555.352 1380.44L558.746 1373.58H562.833L560.597 1378.63C562.396 1379.03 563.785 1379.64 564.762 1380.44C565.739 1381.24 566.227 1382.42 566.227 1383.98C566.227 1386.19 565.122 1387.83 562.911 1388.88C560.751 1389.99 557.614 1390.64 553.501 1390.84Z" fill="black"/>
<path d="M588.617 1374.71C585.481 1374.71 582.858 1373.81 580.75 1372C578.693 1370.19 577.665 1367.63 577.665 1364.31C577.665 1360.29 579.49 1357.22 583.141 1355.11C586.792 1352.95 592.628 1351.45 600.65 1350.59C600.65 1349.44 600.521 1348.3 600.264 1347.2C600.058 1346.09 599.673 1345.11 599.107 1344.26C598.541 1343.41 597.744 1342.73 596.716 1342.22C595.739 1341.67 594.479 1341.4 592.937 1341.4C590.777 1341.4 588.746 1341.8 586.843 1342.6C584.941 1343.41 583.244 1344.31 581.753 1345.32L579.284 1341.02C581.033 1339.91 583.167 1338.86 585.686 1337.85C588.206 1336.8 590.983 1336.27 594.016 1336.27C598.593 1336.27 601.909 1337.65 603.966 1340.42C606.023 1343.13 607.051 1346.77 607.051 1351.35V1373.81H601.806L601.267 1369.44H601.035C599.235 1370.89 597.307 1372.15 595.25 1373.2C593.194 1374.21 590.983 1374.71 588.617 1374.71ZM590.468 1369.74C592.268 1369.74 593.965 1369.33 595.559 1368.53C597.153 1367.68 598.85 1366.45 600.65 1364.84V1354.66C597.513 1355.06 594.865 1355.54 592.705 1356.09C590.597 1356.65 588.874 1357.3 587.537 1358.05C586.252 1358.81 585.301 1359.69 584.684 1360.69C584.118 1361.65 583.835 1362.7 583.835 1363.86C583.835 1365.97 584.478 1367.48 585.763 1368.38C587.049 1369.28 588.617 1369.74 590.468 1369.74ZM599.415 1330.32C598.027 1330.32 596.844 1329.99 595.867 1329.34C594.891 1328.68 593.991 1327.95 593.168 1327.15C592.345 1326.35 591.548 1325.62 590.777 1324.96C590.057 1324.31 589.26 1323.98 588.386 1323.98C587.203 1323.98 586.329 1324.54 585.763 1325.64C585.198 1326.75 584.864 1328.18 584.761 1329.94L580.519 1329.71C580.57 1328.26 580.75 1326.9 581.058 1325.64C581.418 1324.39 581.907 1323.31 582.524 1322.4C583.141 1321.5 583.912 1320.79 584.838 1320.29C585.815 1319.74 586.972 1319.46 588.309 1319.46C589.697 1319.46 590.88 1319.79 591.857 1320.44C592.834 1321.09 593.734 1321.82 594.556 1322.63C595.379 1323.43 596.15 1324.16 596.87 1324.81C597.641 1325.47 598.49 1325.79 599.415 1325.79C600.547 1325.79 601.395 1325.24 601.961 1324.13C602.526 1323.03 602.861 1321.6 602.963 1319.84L607.206 1320.14C607.154 1321.6 606.948 1322.95 606.589 1324.21C606.28 1325.42 605.817 1326.47 605.2 1327.38C604.583 1328.28 603.786 1329.01 602.809 1329.56C601.884 1330.06 600.752 1330.32 599.415 1330.32Z" fill="black"/>
<path d="M633.423 1374.71C631.109 1374.71 628.898 1374.28 626.789 1373.43C624.733 1372.58 622.907 1371.34 621.313 1369.74C619.719 1368.08 618.434 1366.07 617.457 1363.71C616.531 1361.29 616.068 1358.58 616.068 1355.57C616.068 1352.5 616.531 1349.79 617.457 1347.43C618.434 1345.01 619.719 1342.98 621.313 1341.32C622.907 1339.66 624.733 1338.41 626.789 1337.55C628.898 1336.7 631.109 1336.27 633.423 1336.27C635.736 1336.27 637.922 1336.7 639.979 1337.55C642.087 1338.41 643.938 1339.66 645.532 1341.32C647.126 1342.98 648.386 1345.01 649.311 1347.43C650.288 1349.79 650.777 1352.5 650.777 1355.57C650.777 1358.58 650.288 1361.29 649.311 1363.71C648.386 1366.07 647.126 1368.08 645.532 1369.74C643.938 1371.34 642.087 1372.58 639.979 1373.43C637.922 1374.28 635.736 1374.71 633.423 1374.71ZM633.423 1369.59C635.017 1369.59 636.482 1369.26 637.819 1368.61C639.156 1367.9 640.287 1366.95 641.213 1365.74C642.19 1364.49 642.935 1363 643.449 1361.29C643.964 1359.59 644.221 1357.68 644.221 1355.57C644.221 1353.46 643.964 1351.55 643.449 1349.84C642.935 1348.08 642.19 1346.57 641.213 1345.32C640.287 1344.06 639.156 1343.1 637.819 1342.45C636.482 1341.75 635.017 1341.4 633.423 1341.4C631.829 1341.4 630.363 1341.75 629.026 1342.45C627.689 1343.1 626.532 1344.06 625.555 1345.32C624.63 1346.57 623.91 1348.08 623.396 1349.84C622.881 1351.55 622.624 1353.46 622.624 1355.57C622.624 1357.68 622.881 1359.59 623.396 1361.29C623.91 1363 624.63 1364.49 625.555 1365.74C626.532 1366.95 627.689 1367.9 629.026 1368.61C630.363 1369.26 631.829 1369.59 633.423 1369.59Z" fill="black"/>
<path d="M688.894 1374.71C684.163 1374.71 680.383 1373.05 677.555 1369.74C674.779 1366.42 673.39 1361.7 673.39 1355.57C673.39 1352.6 673.827 1349.94 674.702 1347.58C675.627 1345.16 676.836 1343.13 678.327 1341.47C679.818 1339.81 681.54 1338.53 683.494 1337.63C685.448 1336.72 687.505 1336.27 689.665 1336.27C691.824 1336.27 693.701 1336.65 695.295 1337.4C696.889 1338.15 698.509 1339.18 700.154 1340.49L699.846 1334.23V1320.14H706.248V1373.81H701.003L700.463 1369.51H700.232C698.74 1370.92 697.018 1372.15 695.064 1373.2C693.161 1374.21 691.105 1374.71 688.894 1374.71ZM690.282 1369.51C692.03 1369.51 693.676 1369.11 695.218 1368.3C696.761 1367.45 698.303 1366.17 699.846 1364.46V1345.32C698.252 1343.91 696.709 1342.93 695.218 1342.38C693.778 1341.77 692.287 1341.47 690.745 1341.47C689.253 1341.47 687.839 1341.82 686.503 1342.53C685.217 1343.18 684.086 1344.13 683.109 1345.39C682.132 1346.6 681.36 1348.05 680.795 1349.76C680.229 1351.47 679.946 1353.38 679.946 1355.49C679.946 1359.91 680.846 1363.35 682.646 1365.82C684.446 1368.28 686.991 1369.51 690.282 1369.51Z" fill="black"/>
<path d="M727.512 1374.71C724.375 1374.71 721.753 1373.81 719.644 1372C717.588 1370.19 716.559 1367.63 716.559 1364.31C716.559 1360.29 718.385 1357.22 722.035 1355.11C725.686 1352.95 731.522 1351.45 739.544 1350.59C739.544 1349.44 739.415 1348.3 739.158 1347.2C738.953 1346.09 738.567 1345.11 738.001 1344.26C737.436 1343.41 736.639 1342.73 735.61 1342.22C734.633 1341.67 733.373 1341.4 731.831 1341.4C729.671 1341.4 727.64 1341.8 725.738 1342.6C723.835 1343.41 722.138 1344.31 720.647 1345.32L718.179 1341.02C719.927 1339.91 722.061 1338.86 724.581 1337.85C727.1 1336.8 729.877 1336.27 732.911 1336.27C737.487 1336.27 740.804 1337.65 742.86 1340.42C744.917 1343.13 745.946 1346.77 745.946 1351.35V1373.81H740.701L740.161 1369.44H739.93C738.13 1370.89 736.202 1372.15 734.145 1373.2C732.088 1374.21 729.877 1374.71 727.512 1374.71ZM729.363 1369.74C731.162 1369.74 732.859 1369.33 734.453 1368.53C736.047 1367.68 737.744 1366.45 739.544 1364.84V1354.66C736.407 1355.06 733.759 1355.54 731.599 1356.09C729.491 1356.65 727.769 1357.3 726.432 1358.05C725.146 1358.81 724.195 1359.69 723.578 1360.69C723.012 1361.65 722.729 1362.7 722.729 1363.86C722.729 1365.97 723.372 1367.48 724.658 1368.38C725.943 1369.28 727.512 1369.74 729.363 1369.74Z" fill="black"/>
<path d="M782.513 1346.14L780.122 1353.68H795.317L792.926 1346.14C792 1343.38 791.126 1340.64 790.303 1337.93C789.48 1335.16 788.658 1332.35 787.835 1329.49H787.527C786.755 1332.35 785.958 1335.16 785.136 1337.93C784.313 1340.64 783.439 1343.38 782.513 1346.14ZM767.087 1373.81L784.21 1324.36H791.46L808.583 1373.81H801.719L796.936 1358.73H778.502L773.643 1373.81H767.087Z" fill="black"/>
<path d="M815.135 1373.81V1337.17H820.38L820.92 1342.45H821.151C822.797 1340.69 824.57 1339.23 826.473 1338.08C828.427 1336.87 830.535 1336.27 832.798 1336.27C835.677 1336.27 837.914 1336.9 839.508 1338.15C841.153 1339.36 842.362 1341.07 843.133 1343.28C845.087 1341.17 847.041 1339.49 848.995 1338.23C851 1336.92 853.16 1336.27 855.474 1336.27C859.33 1336.27 862.184 1337.48 864.035 1339.89C865.938 1342.3 866.889 1345.87 866.889 1350.59V1373.81H860.565V1351.42C860.565 1347.95 859.999 1345.47 858.868 1343.96C857.736 1342.4 855.988 1341.62 853.623 1341.62C850.795 1341.62 847.658 1343.51 844.213 1347.27V1373.81H837.888V1351.42C837.888 1347.95 837.323 1345.47 836.191 1343.96C835.06 1342.4 833.286 1341.62 830.869 1341.62C828.041 1341.62 824.905 1343.51 821.46 1347.27V1373.81H815.135Z" fill="black"/>
<path d="M887.722 1374.71C884.585 1374.71 881.963 1373.81 879.855 1372C877.798 1370.19 876.77 1367.63 876.77 1364.31C876.77 1360.29 878.595 1357.22 882.246 1355.11C885.897 1352.95 891.733 1351.45 899.754 1350.59C899.754 1349.44 899.626 1348.3 899.369 1347.2C899.163 1346.09 898.777 1345.11 898.212 1344.26C897.646 1343.41 896.849 1342.73 895.821 1342.22C894.844 1341.67 893.584 1341.4 892.041 1341.4C889.882 1341.4 887.851 1341.8 885.948 1342.6C884.046 1343.41 882.349 1344.31 880.857 1345.32L878.389 1341.02C880.138 1339.91 882.272 1338.86 884.791 1337.85C887.311 1336.8 890.087 1336.27 893.121 1336.27C897.698 1336.27 901.014 1337.65 903.071 1340.42C905.128 1343.13 906.156 1346.77 906.156 1351.35V1373.81H900.911L900.371 1369.44H900.14C898.34 1370.89 896.412 1372.15 894.355 1373.2C892.298 1374.21 890.087 1374.71 887.722 1374.71ZM889.573 1369.74C891.373 1369.74 893.07 1369.33 894.664 1368.53C896.258 1367.68 897.955 1366.45 899.754 1364.84V1354.66C896.618 1355.06 893.97 1355.54 891.81 1356.09C889.702 1356.65 887.979 1357.3 886.642 1358.05C885.357 1358.81 884.406 1359.69 883.788 1360.69C883.223 1361.65 882.94 1362.7 882.94 1363.86C882.94 1365.97 883.583 1367.48 884.868 1368.38C886.154 1369.28 887.722 1369.74 889.573 1369.74Z" fill="black"/>
<path d="M914.016 1373.81V1370.49L933.761 1342.22H916.176V1337.17H941.783V1340.49L922.038 1368.76H942.4V1373.81H914.016Z" fill="black"/>
<path d="M964.539 1374.71C962.225 1374.71 960.014 1374.28 957.906 1373.43C955.849 1372.58 954.024 1371.34 952.43 1369.74C950.836 1368.08 949.55 1366.07 948.573 1363.71C947.648 1361.29 947.185 1358.58 947.185 1355.57C947.185 1352.5 947.648 1349.79 948.573 1347.43C949.55 1345.01 950.836 1342.98 952.43 1341.32C954.024 1339.66 955.849 1338.41 957.906 1337.55C960.014 1336.7 962.225 1336.27 964.539 1336.27C966.853 1336.27 969.039 1336.7 971.095 1337.55C973.204 1338.41 975.055 1339.66 976.649 1341.32C978.243 1342.98 979.503 1345.01 980.428 1347.43C981.405 1349.79 981.894 1352.5 981.894 1355.57C981.894 1358.58 981.405 1361.29 980.428 1363.71C979.503 1366.07 978.243 1368.08 976.649 1369.74C975.055 1371.34 973.204 1372.58 971.095 1373.43C969.039 1374.28 966.853 1374.71 964.539 1374.71ZM964.539 1369.59C966.133 1369.59 967.599 1369.26 968.936 1368.61C970.273 1367.9 971.404 1366.95 972.329 1365.74C973.306 1364.49 974.052 1363 974.566 1361.29C975.081 1359.59 975.338 1357.68 975.338 1355.57C975.338 1353.46 975.081 1351.55 974.566 1349.84C974.052 1348.08 973.306 1346.57 972.329 1345.32C971.404 1344.06 970.273 1343.1 968.936 1342.45C967.599 1341.75 966.133 1341.4 964.539 1341.4C962.945 1341.4 961.48 1341.75 960.143 1342.45C958.806 1343.1 957.649 1344.06 956.672 1345.32C955.747 1346.57 955.027 1348.08 954.512 1349.84C953.998 1351.55 953.741 1353.46 953.741 1355.57C953.741 1357.68 953.998 1359.59 954.512 1361.29C955.027 1363 955.747 1364.49 956.672 1365.74C957.649 1366.95 958.806 1367.9 960.143 1368.61C961.48 1369.26 962.945 1369.59 964.539 1369.59ZM952.584 1328.58L961.377 1318.03H967.702L976.495 1328.58L973.795 1330.99L964.694 1322.48H964.385L955.284 1330.99L952.584 1328.58Z" fill="black"/>
<path d="M991.766 1373.81V1337.17H997.01L997.55 1342.45H997.782C999.582 1340.69 1001.46 1339.23 1003.41 1338.08C1005.42 1336.87 1007.73 1336.27 1010.35 1336.27C1014.31 1336.27 1017.19 1337.48 1018.99 1339.89C1020.84 1342.3 1021.77 1345.87 1021.77 1350.59V1373.81H1015.44V1351.42C1015.44 1347.95 1014.88 1345.47 1013.75 1343.96C1012.62 1342.4 1010.82 1341.62 1008.35 1341.62C1006.39 1341.62 1004.67 1342.1 1003.18 1343.05C1001.69 1344.01 999.993 1345.42 998.09 1347.27V1373.81H991.766Z" fill="black"/>
<path d="M1033.95 1373.81V1337.17H1040.27V1373.81H1033.95ZM1037.19 1329.64C1035.95 1329.64 1034.9 1329.26 1034.02 1328.51C1033.2 1327.75 1032.79 1326.8 1032.79 1325.64C1032.79 1324.44 1033.2 1323.48 1034.02 1322.78C1034.9 1322.02 1035.95 1321.65 1037.19 1321.65C1038.42 1321.65 1039.45 1322.02 1040.27 1322.78C1041.15 1323.48 1041.58 1324.44 1041.58 1325.64C1041.58 1326.8 1041.15 1327.75 1040.27 1328.51C1039.45 1329.26 1038.42 1329.64 1037.19 1329.64Z" fill="black"/>
<path d="M1061.57 1374.71C1058.43 1374.71 1055.81 1373.81 1053.7 1372C1051.64 1370.19 1050.61 1367.63 1050.61 1364.31C1050.61 1360.29 1052.44 1357.22 1056.09 1355.11C1059.74 1352.95 1065.58 1351.45 1073.6 1350.59C1073.6 1349.44 1073.47 1348.3 1073.21 1347.2C1073.01 1346.09 1072.62 1345.11 1072.06 1344.26C1071.49 1343.41 1070.69 1342.73 1069.66 1342.22C1068.69 1341.67 1067.43 1341.4 1065.89 1341.4C1063.73 1341.4 1061.69 1341.8 1059.79 1342.6C1057.89 1343.41 1056.19 1344.31 1054.7 1345.32L1052.23 1341.02C1053.98 1339.91 1056.12 1338.86 1058.64 1337.85C1061.15 1336.8 1063.93 1336.27 1066.97 1336.27C1071.54 1336.27 1074.86 1337.65 1076.91 1340.42C1078.97 1343.13 1080 1346.77 1080 1351.35V1373.81H1074.76L1074.22 1369.44H1073.98C1072.18 1370.89 1070.26 1372.15 1068.2 1373.2C1066.14 1374.21 1063.93 1374.71 1061.57 1374.71ZM1063.42 1369.74C1065.22 1369.74 1066.91 1369.33 1068.51 1368.53C1070.1 1367.68 1071.8 1366.45 1073.6 1364.84V1354.66C1070.46 1355.06 1067.81 1355.54 1065.65 1356.09C1063.55 1356.65 1061.82 1357.3 1060.49 1358.05C1059.2 1358.81 1058.25 1359.69 1057.63 1360.69C1057.07 1361.65 1056.78 1362.7 1056.78 1363.86C1056.78 1365.97 1057.43 1367.48 1058.71 1368.38C1060 1369.28 1061.57 1369.74 1063.42 1369.74Z" fill="black"/>
<path d="M1028.61 489.03C1028.61 759.114 809.66 978.061 539.576 978.061C269.492 978.061 50.5459 759.114 50.5459 489.03C50.5459 218.946 269.492 0 539.576 0C809.66 0 1028.61 218.946 1028.61 489.03Z" fill="white"/>
<path d="M475.13 274.761C470.792 266.392 436.922 199.154 469.369 134.665C501.453 70.8448 573.922 58.7364 600.245 54.3283C657.857 44.703 703.933 62.3773 732.293 73.258C779.945 91.5321 810.844 117.241 834 136.59C867.575 164.655 896.694 197.655 920.363 234.461C894.36 254.398 864.173 268.177 832.075 274.761C799.851 281.178 773.347 278.444 756.189 276.533C726.532 273.227 719.92 267.926 687.584 260.672C663.2 255.218 615.046 244.811 559.554 251.507C530.427 255.092 501.984 262.927 475.13 274.761Z" fill="#78C5DB"/>
<path d="M140.081 260.326C147.41 258.251 154.866 256.653 162.401 255.541C171.869 254.164 181.43 253.521 190.998 253.616H191.137C218.52 253.881 244.871 261.302 244.871 261.302C249.405 262.572 245.304 261.595 281.503 274.582C285.019 275.852 291.938 278.335 301.033 281.99C308.998 285.17 314.508 287.57 315.834 288.169C333.215 295.577 365.509 297.39 395.933 293.596C410.426 291.794 424.73 288.704 438.675 284.361C431.895 272.56 402.684 218.798 419.48 151.937C441.186 65.6437 520.769 32.5132 529.097 29.1792C454.407 30.7884 381.226 50.5162 315.848 86.6659C213.819 143.288 161.076 223.722 140.081 260.326Z" fill="#40A239"/>
<path d="M140.441 259.688C105.119 319.374 84.7064 386.695 80.9316 455.947C94.5047 450.367 119.991 442.443 150.848 447.577C160.068 449.103 169.082 451.682 177.715 455.263C180.05 431.827 184.542 408.656 191.134 386.045C204.14 341.783 224.924 300.192 252.513 263.218C216.231 251.495 177.374 250.272 140.427 259.688H140.441Z" fill="#309A40"/>
<path d="M80.9316 455.293C75.0975 537.367 91.4355 619.5 128.235 693.093C145.833 671.241 171.032 656.838 198.793 652.765C179.444 588.783 172.28 521.737 177.673 455.112C162.339 448.706 145.883 445.421 129.266 445.447C112.648 445.474 96.2028 448.811 80.8898 455.265L80.9316 455.293Z" fill="#198B42"/>
<path d="M252.368 263.179C240.503 293.785 230.931 325.231 223.729 357.256C216.475 389.717 214.773 409.344 214.132 418.635C213.051 434.607 213.051 450.635 214.132 466.608C265.299 480.348 307.455 481.004 338.87 478.116C391.976 473.248 415.216 458.14 471.294 451.249C512.174 446.34 553.56 447.638 594.052 455.099C569.737 433.17 549.636 414.101 534.626 399.482C491.661 357.73 478.158 341.116 471.294 332.314C459.344 317.003 448.417 300.922 438.582 284.173C426.025 287.71 413.227 290.33 400.29 292.013C377.245 295.012 351.983 298.291 323.567 290.088C318.712 288.693 317.624 288.065 310.259 285.094L309.283 284.69C297.983 280.1 283.197 274.744 283.197 274.744C276.584 272.344 266.764 268.717 252.368 263.179Z" fill="#309A40"/>
<path d="M214.135 466.485C215.63 524.41 227.337 581.616 248.717 635.472C284.836 624.351 322.235 617.919 359.994 616.333C380.514 615.468 407.995 614.324 442.129 620.629C466.569 625.149 501.695 634.83 520.889 640.159C527.404 641.944 528.032 642.168 531.073 642.949C555.066 649.505 616.529 666.273 688.16 652.714C704.509 649.627 720.559 645.132 736.133 639.28C731.939 621.272 725.49 603.865 716.939 587.471C700.883 556.781 681.06 537.14 642.098 499.197C630.423 487.828 614.199 472.525 594.111 455.06C536.794 443.579 477.646 444.927 420.912 459.008C353.954 480.293 282.45 482.865 214.135 466.443V466.485Z" fill="#198B42"/>
<path d="M248.726 635.497C287.813 742.832 351.564 839.486 434.843 917.672C465.34 912.626 495.472 905.575 525.042 896.566C547.947 889.591 573.754 881.598 605.643 865.877C624.908 856.363 639.388 849.221 655.541 837.084C669.491 826.65 717.813 789.195 734.218 721.943C740.728 694.885 741.384 666.749 736.143 639.417C663.812 663.268 585.608 662.419 513.812 637.004C428.073 607.105 334.818 606.615 248.768 635.609L248.726 635.497Z" fill="#126937"/>
<path d="M776.441 633.615C783.736 671.015 780.346 699.765 776.441 718.053C744.524 867.468 547.986 925.694 528.875 931.065C510.615 936.206 492.016 940.056 473.216 942.587C514.898 948.307 629.718 958.448 751.484 894.614C901.625 815.91 957.243 679.789 970.272 645.124C954.106 652.12 936.578 655.407 918.976 654.743C901.374 654.079 884.143 649.482 868.55 641.288C839.196 630.109 807.282 627.449 776.482 633.615H776.441Z" fill="#214699"/>
<path d="M655.532 457.03C675.342 474.96 693.931 494.193 711.178 514.6C732.102 539.361 747.879 558.305 761.076 587.53C767.76 602.383 772.902 617.883 776.421 633.787C784.053 632.624 791.749 631.925 799.465 631.694C814.276 631.293 829.083 632.58 843.602 635.53C877.877 642.324 875.687 650.415 904.981 654.725C928.054 658.115 942.938 655.088 951.015 652.8C957.668 650.932 964.102 648.36 970.21 645.128C992.152 583.5 1000.86 517.938 995.752 452.72C968 440.03 937.818 433.536 907.303 433.69C876.788 433.844 846.673 440.643 819.051 453.612C766.842 475.017 708.54 476.245 655.477 457.058L655.532 457.03Z" fill="#2273AA"/>
<path d="M473.216 270.887C482.57 290.108 494.179 308.146 507.797 324.622C531.679 353.498 552.06 365.578 588.399 395.626C604.511 408.948 628.169 429.454 655.566 457.004C679.979 466.899 706.046 472.078 732.387 472.265C751.778 472.151 771.077 469.601 789.832 464.677C804.34 461.092 811.315 458.037 822.963 454.103C833.495 450.56 872.387 437.656 911.069 436.401C931.003 435.759 960.061 438.089 995.814 453.015C990.354 374.775 964.319 299.366 920.346 234.423C897.868 248.998 873.266 260 847.417 267.037C825.348 273.036 791.492 282.229 755.349 274.724C742.543 272.059 715.132 266.047 711.198 265.126C698.336 262.085 687.748 259.365 680.508 257.454C661.635 252.474 614.038 243.309 557.751 249.768C528.777 253.117 500.361 260.216 473.216 270.887Z" fill="#36A2C1"/>
<path d="M128.049 692.716C178.474 794.029 264.666 873.053 369.965 914.516C291.724 843.145 232.838 753.118 198.802 652.833C170.891 656.346 145.479 670.69 128.049 692.772V692.716Z" fill="#126937"/>
</svg>
